<?xml version="1.0" encoding="UTF-8"?>
<svg version="1.1" xmlns="http://www.w3.org/2000/svg" viewBox="0 0 331 378" fill="currentColor">
<path d="M0 0 C0.763125 0.20625 1.52625 0.4125 2.3125 0.625 C2.3125 1.285 2.3125 1.945 2.3125 2.625 C3.6325 2.295 4.9525 1.965 6.3125 1.625 C5.78981534 4.38776177 5.20380413 6.9510876 4.3125 9.625 C4.9725 9.625 5.6325 9.625 6.3125 9.625 C5.69711538 16.14807692 5.69711538 16.14807692 3.75 18.5625 C3.275625 18.913125 2.80125 19.26375 2.3125 19.625 C4.2925 20.615 4.2925 20.615 6.3125 21.625 C6.3125 22.285 6.3125 22.945 6.3125 23.625 C9.88062705 24.71728379 13.17159899 25.60522442 16.875 26.125 C20.31349731 26.62514506 23.15774328 27.15767129 26.3125 28.625 C26.56 29.429375 26.8075 30.23375 27.0625 31.0625 C28.04969785 33.80501778 28.04969785 33.80501778 30.54296875 34.546875 C32.31986958 35.04943281 34.1067549 35.51817165 35.90234375 35.94921875 C38.3125 36.625 38.3125 36.625 41.3125 38.625 C42.6325 38.625 43.9525 38.625 45.3125 38.625 C46.46903651 35.5970995 46.46903651 35.5970995 46.5 32.125 C47.3125 28.625 47.3125 28.625 50 26.6875 C54.29029954 25.31136618 57.4760119 24.85174185 61.6875 26.625 C62.491875 27.12 62.491875 27.12 63.3125 27.625 C63.3125 28.285 63.3125 28.945 63.3125 29.625 C64.29089844 29.73457031 65.26929688 29.84414063 66.27734375 29.95703125 C72.91477775 30.74508354 79.14965346 31.69329338 85.453125 34.015625 C88.20076729 34.91611281 90.460611 35.022938 93.3125 34.625 C94.240625 33.8515625 94.240625 33.8515625 95.1875 33.0625 C97.72700358 31.34460052 98.53273734 31.52187993 101.5 31.875 C105.3125 32.625 105.3125 32.625 106.3125 33.625 C107.83178038 33.69679964 109.35417482 33.70892007 110.875 33.6875 C111.70128906 33.67847656 112.52757812 33.66945312 113.37890625 33.66015625 C114.01699219 33.64855469 114.65507812 33.63695312 115.3125 33.625 C118.1038233 38.2772055 119.0962561 42.26245826 118.3125 47.625 C117.54010038 50.1996654 116.58658508 52.22383966 115.3125 54.625 C114.3225 55.12 114.3225 55.12 113.3125 55.625 C115.22778451 60.24736261 117.19604951 64.59298038 120 68.75 C121.89780649 71.62824428 122.33445785 72.78968389 122.8125 76.375 C122.98762739 79.79846892 122.98762739 79.79846892 125.75 81.8125 C126.595625 82.410625 127.44125 83.00875 128.3125 83.625 C130.47540752 86.9212118 130.5328044 89.74308001 130.625 93.625 C130.79914761 98.36659455 130.79914761 98.36659455 133.6875 101.9375 C134.55375 102.494375 135.42 103.05125 136.3125 103.625 C138.53409102 107.90949697 139.7293485 111.84315768 140.3125 116.625 C141.17875 116.851875 142.045 117.07875 142.9375 117.3125 C146.97823255 118.88389599 149.18447109 120.64592484 152.3125 123.625 C152.3125 124.285 152.3125 124.945 152.3125 125.625 C152.9725 125.625 153.6325 125.625 154.3125 125.625 C157.98128204 129.62730768 159.3125 132.26718568 159.3125 137.625 C159.9725 138.615 160.6325 139.605 161.3125 140.625 C164.07526177 140.10231534 166.6385876 139.51630413 169.3125 138.625 C171.5599674 138.31442033 173.81045895 138.02546425 176.0625 137.75 C181.88596138 136.96608332 181.88596138 136.96608332 187.375 135 C190.33776586 133.61317343 192.09380037 133.33239094 195.3125 133.625 C194.54663124 142.51310847 192.9335786 149.0499327 187.76171875 156.42578125 C186.47935588 158.37179283 185.54849462 160.15763501 184.6875 162.3125 C180.47951156 172.44992669 172.16192541 181.79685029 162.3125 186.625 C158.47306772 189.41278875 155.62731654 192.4748451 152.6875 196.1875 C147.41089427 202.82377717 147.41089427 202.82377717 145.3125 204.625 C144.6525 204.625 143.9925 204.625 143.3125 204.625 C143.168125 205.57375 143.02375 206.5225 142.875 207.5 C142.3125 210.625 142.3125 210.625 141.3125 212.625 C141.3125 213.945 141.3125 215.265 141.3125 216.625 C140.6525 216.955 139.9925 217.285 139.3125 217.625 C139.6425 218.615 139.9725 219.605 140.3125 220.625 C139.875 222.8125 139.875 222.8125 139.3125 224.625 C139.9725 224.955 140.6325 225.285 141.3125 225.625 C141.3125 226.615 141.3125 227.605 141.3125 228.625 C140.3225 228.625 139.3325 228.625 138.3125 228.625 C138.90888333 229.89950447 139.51497416 231.16946877 140.125 232.4375 C140.46144531 233.14519531 140.79789062 233.85289062 141.14453125 234.58203125 C142.18323858 236.66156416 142.18323858 236.66156416 143.84472656 237.94897461 C146.75511946 241.27230249 146.07683081 246.14197526 146.25 250.375 C146.35151367 251.84066406 146.35151367 251.84066406 146.45507812 253.3359375 C146.75309846 259.74553422 146.16174179 263.43508872 142.3125 268.625 C139.13236611 271.15465196 135.84061534 272.85137534 132.1875 274.5625 C128.53628908 276.32586891 126.75789786 278.36446953 124.3125 281.625 C122.35398656 283.01855764 120.36122887 284.36782547 118.3125 285.625 C118.62032496 287.27171412 118.93389234 288.91735576 119.25 290.5625 C119.42402344 291.47902344 119.59804687 292.39554687 119.77734375 293.33984375 C120.08964988 295.57789844 120.08964988 295.57789844 121.3125 296.625 C121.27445593 298.58573272 121.1570406 300.54519607 121 302.5 C120.92136719 303.56992187 120.84273437 304.63984375 120.76171875 305.7421875 C120.3125 308.625 120.3125 308.625 118.3125 311.625 C115.9296875 313.01171875 115.9296875 313.01171875 113.1875 314.3125 C112.27742187 314.74949219 111.36734375 315.18648438 110.4296875 315.63671875 C109.73101562 315.96285156 109.03234375 316.28898437 108.3125 316.625 C108.6528125 318.3884375 108.6528125 318.3884375 109 320.1875 C109.54936747 324.77633413 108.60910216 327.55038326 106.3125 331.625 C104.88574608 333.41559661 103.39080444 335.11391112 101.8515625 336.80859375 C100.28067883 338.66255544 99.05744143 340.54072709 97.8125 342.625 C92.12511133 351.90724754 85.04448226 357.75767422 74.9375 362.0625 C71.48528576 362.59818842 68.42188581 362.62702566 64.9375 362.5625 C59.10157715 362.45492539 54.65853148 363.39170114 49.3125 365.625 C46.3125 366.625 46.3125 366.625 43.1875 365.1875 C42.23875 364.671875 41.29 364.15625 40.3125 363.625 C39.9825 363.625 39.6525 363.625 39.3125 363.625 C37.16964286 356.19642857 37.16964286 356.19642857 36.3125 352.625 C37.3025 352.625 38.2925 352.625 39.3125 352.625 C38.7246875 351.4803125 38.7246875 351.4803125 38.125 350.3125 C36.60101084 347.24993805 35.13295063 344.16288686 33.6875 341.0625 C33.26210937 340.15371094 32.83671875 339.24492187 32.3984375 338.30859375 C31.35721988 335.7355128 30.75728013 333.35792681 30.3125 330.625 C29.3225 330.295 28.3325 329.965 27.3125 329.625 C23.48614544 324.40724379 22.56118758 319.56148596 21.70703125 313.19921875 C21.45015299 310.64484601 21.45015299 310.64484601 20.3125 308.625 C20.18394283 306.87662254 20.08372731 305.12609692 20 303.375 C19.58740523 298.34527327 18.4347397 295.66554549 15.3125 291.625 C14.3125 289.29166667 13.3125 286.95833333 12.3125 284.625 C11.63058594 283.71492188 10.94867188 282.80484375 10.24609375 281.8671875 C6.63145875 275.80628437 7.28904276 267.74965598 8.9609375 261.01171875 C9.65754711 259.18053211 10.47666381 257.39697272 11.3125 255.625 C11.67173563 254.2984109 12.01157412 252.9660192 12.3125 251.625 C12.9725 251.625 13.6325 251.625 14.3125 251.625 C16.23102455 248.29955745 17.09492162 245.46888468 17.3125 241.625 C16.68656095 239.32989017 15.89686748 237.14152568 15.0625 234.9140625 C14.34612923 232.72763922 14.08307162 230.90865483 13.9375 228.625 C13.5492449 224.31968238 11.63262452 221.2251993 9.37109375 217.60546875 C8.3125 215.625 8.3125 215.625 8.3125 212.625 C7.3225 212.295 6.3325 211.965 5.3125 211.625 C3.9584068 209.63899663 2.62792376 207.63682457 1.3125 205.625 C0.44625 204.779375 -0.42 203.93375 -1.3125 203.0625 C-4.53528034 199.75490965 -5.6875 197.22675059 -5.6875 192.625 C-5.0275 192.625 -4.3675 192.625 -3.6875 192.625 C-3.61402344 191.73748047 -3.61402344 191.73748047 -3.5390625 190.83203125 C-3.11640105 186.36493694 -2.42093366 182.78524079 -0.6875 178.625 C-0.51951738 175.91613059 -0.51951738 175.91613059 -0.6875 173.625 C-6.64046558 170.19059678 -13.02428156 170.49173563 -19.6875 170.625 C-23.6875 163.875 -23.6875 163.875 -23.6875 161.625 C-29.2975 161.955 -34.9075 162.285 -40.6875 162.625 C-40.6875 163.285 -40.6875 163.945 -40.6875 164.625 C-41.59113281 164.90214844 -42.49476562 165.17929688 -43.42578125 165.46484375 C-44.60527344 165.82707031 -45.78476563 166.18929687 -47 166.5625 C-48.17175781 166.92214844 -49.34351562 167.28179687 -50.55078125 167.65234375 C-52.60303977 168.28872279 -54.64910137 168.94553379 -56.6875 169.625 C-57.6775 169.295 -58.6675 168.965 -59.6875 168.625 C-61.78913415 168.50434544 -63.89494033 168.44963991 -66 168.4375 C-67.10988281 168.42332031 -68.21976563 168.40914062 -69.36328125 168.39453125 C-72.79631378 168.63254408 -75.46163129 169.47482954 -78.6875 170.625 C-87.0660424 171.06597592 -93.48997732 165.7738565 -99.6875 160.625 C-99.6875 159.965 -99.6875 159.305 -99.6875 158.625 C-100.47125 158.480625 -101.255 158.33625 -102.0625 158.1875 C-104.6875 157.625 -104.6875 157.625 -106.6875 156.625 C-107.48484684 155.06497357 -108.2268316 153.47637281 -108.9375 151.875 C-111.22454432 147.08927443 -113.53940715 144.80842009 -117.6875 141.625 C-117.6875 140.635 -117.6875 139.645 -117.6875 138.625 C-119.3375 138.295 -120.9875 137.965 -122.6875 137.625 C-122.81125 136.985625 -122.935 136.34625 -123.0625 135.6875 C-123.26875 135.006875 -123.475 134.32625 -123.6875 133.625 C-124.3475 133.295 -125.0075 132.965 -125.6875 132.625 C-125.6875 129.325 -125.6875 126.025 -125.6875 122.625 C-126.3475 122.625 -127.0075 122.625 -127.6875 122.625 C-127.0275 119.655 -126.3675 116.685 -125.6875 113.625 C-125.0275 113.625 -124.3675 113.625 -123.6875 113.625 C-123.708125 112.655625 -123.72875 111.68625 -123.75 110.6875 C-123.6875 107.625 -123.6875 107.625 -122.6875 106.625 C-122.75197566 104.49730338 -122.88921192 102.37160817 -123.0625 100.25 C-123.19785156 98.50589844 -123.19785156 98.50589844 -123.3359375 96.7265625 C-123.58234716 93.59484768 -123.58234716 93.59484768 -124.6875 90.625 C-125.3475 90.625 -126.0075 90.625 -126.6875 90.625 C-126.3575 87.985 -126.0275 85.345 -125.6875 82.625 C-125.0275 82.625 -124.3675 82.625 -123.6875 82.625 C-123.50574219 82.01011719 -123.32398437 81.39523438 -123.13671875 80.76171875 C-122.88535156 79.95347656 -122.63398437 79.14523438 -122.375 78.3125 C-122.13136719 77.51199219 -121.88773438 76.71148437 -121.63671875 75.88671875 C-120.62506589 73.47623724 -119.5269712 72.43137018 -117.6875 70.625 C-116.58410096 68.34923948 -115.67702806 66.03592746 -114.75 63.68359375 C-113.6875 61.625 -113.6875 61.625 -110.6875 59.625 C-110.295625 58.490625 -109.90375 57.35625 -109.5 56.1875 C-107.6875 52.625 -107.6875 52.625 -105.89453125 51.67578125 C-104.49728464 51.22226593 -103.09469344 50.78492193 -101.6875 50.36328125 C-97.86632483 48.95273026 -95.64713717 45.99591024 -93.375 42.75 C-92.50742923 40.4618979 -92.50742923 40.4618979 -92.75 37.25 C-92.65793183 31.91004627 -90.85942781 28.95529643 -87.375 25 C-84.6875 22.625 -84.6875 22.625 -81.625 20.875 C-78.04820585 18.13532788 -77.1773451 15.72640647 -75.7421875 11.55078125 C-74.6875 9.625 -74.6875 9.625 -72.5703125 8.85546875 C-71.94898438 8.77941406 -71.32765625 8.70335937 -70.6875 8.625 C-70.1925 10.11 -70.1925 10.11 -69.6875 11.625 C-67.24933415 11.7059723 -64.81385616 11.76546972 -62.375 11.8125 C-61.68470703 11.83763672 -60.99441406 11.86277344 -60.28320312 11.88867188 C-56.29021514 12.01811829 -56.29021514 12.01811829 -52.89453125 10.1796875 C-52.49621094 9.66664062 -52.09789063 9.15359375 -51.6875 8.625 C-49.70026732 7.92118843 -47.69972047 7.2538189 -45.6875 6.625 C-44.6975 5.965 -43.7075 5.305 -42.6875 4.625 C-35.63147794 2.83614934 -28.62811 2.42549792 -21.37890625 2.65234375 C-18.67650935 2.62488834 -16.32598219 2.17236746 -13.6875 1.625 C-12.31245518 1.60737122 -10.93626153 1.62554605 -9.5625 1.6875 C-5.44369742 1.6210677 -3.84836208 -0.53698076 0 0 Z " fill="currentColor" transform="translate(131.6875,7.375)"/>
<path d="M0 0 C1.875 0.25 1.875 0.25 4 1 C5.78532267 3.91185469 6.52638064 6.79454908 7.1875 10.125 C7.45626953 11.42824219 7.45626953 11.42824219 7.73046875 12.7578125 C8 15 8 15 7 17 C6.34 17 5.68 17 5 17 C4.84978394 17.95616211 4.84978394 17.95616211 4.6965332 18.93164062 C3.40102522 26.63428799 1.44221294 34.02675185 -0.8125 41.5 C-1.14314453 42.6653125 -1.47378906 43.830625 -1.81445312 45.03125 C-2.15025391 46.145 -2.48605469 47.25875 -2.83203125 48.40625 C-3.12827393 49.40978516 -3.4245166 50.41332031 -3.72973633 51.44726562 C-5.30995656 54.62289175 -6.82660312 55.50863381 -10 57 C-13.04690455 57.80836243 -15.05962179 58.3134594 -18.07421875 57.30859375 C-21.77120667 54.79644172 -22.1042009 50.16321019 -23 46 C-23.69980015 41.00142747 -22.28259564 38.13041289 -19.77734375 33.9296875 C-18.79743997 31.49716255 -19.22423294 30.46138436 -20 28 C-20.29461012 24.49208417 -20.24490615 21.13269094 -19.5 17.6875 C-16.44926591 14.25542415 -11.36915212 13.37870165 -7.0625 12.1875 C-6.381875 11.795625 -5.70125 11.40375 -5 11 C-4.10169161 7.94727535 -4.10169161 7.94727535 -4 5 C-3.01 5 -2.02 5 -1 5 C-0.67 3.35 -0.34 1.7 0 0 Z " fill="currentColor" transform="translate(309,252)"/>
<path d="M0 0 C2.475 0.495 2.475 0.495 5 1 C5 1.66 5 2.32 5 3 C5.66 3.66 6.32 4.32 7 5 C6.34 6.32 5.68 7.64 5 9 C5.61875 9.226875 6.2375 9.45375 6.875 9.6875 C9.62260139 11.38454792 9.93210179 13.02514071 11 16 C11.66 16.33 12.32 16.66 13 17 C12.34 18.32 11.68 19.64 11 21 C10.01 20.34 9.02 19.68 8 19 C8 18.01 8 17.02 8 16 C6.35 15.67 4.7 15.34 3 15 C2.87625 14.360625 2.7525 13.72125 2.625 13.0625 C2.41875 12.381875 2.2125 11.70125 2 11 C1.34 10.67 0.68 10.34 0 10 C0 6.7 0 3.4 0 0 Z " fill="currentColor" transform="translate(6,130)"/>
<path d="M0 0 C0 0.33 0 0.66 0 1 C-0.928125 1.268125 -1.85625 1.53625 -2.8125 1.8125 C-5.92408319 2.97171727 -7.00073374 3.48824577 -9 6 C-9.81863105 8.43034105 -9.81863105 8.43034105 -10.375 11.0625 C-11.689215 15.76890346 -11.689215 15.76890346 -14.4375 17.8125 C-17 18 -17 18 -19.1875 16.875 C-21.00046098 14.99952313 -22.00780133 13.39781344 -23 11 C-21.88625 11.495 -21.88625 11.495 -20.75 12 C-17.86116688 13.22782871 -17.86116688 13.22782871 -14 13 C-12.84346349 9.9720995 -12.84346349 9.9720995 -12.8125 6.5 C-12 3 -12 3 -9.3125 1.0625 C-5.98062362 -0.00621506 -3.47168957 -0.24797783 0 0 Z " fill="currentColor" transform="translate(191,33)"/>
<path d="M0 0 C0 0.33 0 0.66 0 1 C-0.77085938 1.12117187 -1.54171875 1.24234375 -2.3359375 1.3671875 C-3.33882812 1.53476563 -4.34171875 1.70234375 -5.375 1.875 C-6.87160156 2.11863281 -6.87160156 2.11863281 -8.3984375 2.3671875 C-11.1425115 2.7958802 -11.1425115 2.7958802 -13 5 C-14.56049504 5.71850131 -16.14830672 6.37873715 -17.75 7 C-18.63945313 7.34546875 -19.52890625 7.6909375 -20.4453125 8.046875 C-23.27544537 9.10276555 -26.11944254 10.09035027 -29 11 C-29.66 10.34 -30.32 9.68 -31 9 C-28.45202629 5.8858099 -25.76978646 5.17805827 -22 4 C-21.01 3.34 -20.02 2.68 -19 2 C-12.7304361 0.51510329 -6.43642015 -0.29256455 0 0 Z " fill="currentColor" transform="translate(108,10)"/>
<path d="M0 0 C0.66 0 1.32 0 2 0 C0.15877226 4.74470225 -2.91208085 5.88287227 -7.3359375 7.9609375 C-11.02412645 9.39943935 -14.04170706 9.80208535 -18 10 C-19.11375 10.061875 -20.2275 10.12375 -21.375 10.1875 C-24 10 -24 10 -26 8 C-22.94736336 7.01879536 -21.05263664 7.01879536 -18 8 C-17.67 7.34 -17.34 6.68 -17 6 C-15.35 6.33 -13.7 6.66 -12 7 C-11.67 6.01 -11.34 5.02 -11 4 C-9.9275 4.0825 -8.855 4.165 -7.75 4.25 C-3.96533931 4.37585669 -3.96533931 4.37585669 -1.6875 2 C-1.130625 1.34 -0.57375 0.68 0 0 Z " fill="currentColor" transform="translate(217,360)"/>
<path d="M0 0 C0.99 0.66 1.98 1.32 3 2 C0.10595123 6.00714446 -2.88420275 8.3157844 -7 11 C-7.99 12.485 -7.99 12.485 -9 14 C-9.66 13.67 -10.32 13.34 -11 13 C-10.53730015 8.70772058 -8.09840542 6.97077935 -4.9375 4.25 C-4.01839844 3.45078125 -3.09929687 2.6515625 -2.15234375 1.828125 C-1.44207031 1.22484375 -0.73179687 0.6215625 0 0 Z " fill="currentColor" transform="translate(257,282)"/>
<path d="M0 0 C0.33 0.66 0.66 1.32 1 2 C1.66 2.33 2.32 2.66 3 3 C2.34 3.66 1.68 4.32 1 5 C0.28023496 6.70126282 -0.43770549 8.40338728 -1.13671875 10.11328125 C-2.44893101 12.98114787 -4.18111145 15.42846791 -6 18 C-6.66 17.01 -7.32 16.02 -8 15 C-5.36 10.05 -2.72 5.1 0 0 Z " fill="currentColor" transform="translate(317,161)"/>
<path d="M0 0 C1.98 0.99 1.98 0.99 4 2 C4 2.66 4 3.32 4 4 C5.670625 3.9690625 5.670625 3.9690625 7.375 3.9375 C11 4 11 4 13 5 C13.66 3.68 14.32 2.36 15 1 C15 2.32 15 3.64 15 5 C11.71609035 6.95470812 9.67768381 8.02657584 5.8125 7.875 C2.93436036 6.97957878 1.66198239 6.49297359 0 4 C0 2.68 0 1.36 0 0 Z " fill="currentColor" transform="translate(288,302)"/>
<path d="M0 0 C2 3 2 3 2 5.25 C0.25556663 10.04719178 -3.43795077 13.43795077 -7 17 C-6.64805058 11.54478398 -6.64805058 11.54478398 -6 9 C-4.0625 7.9375 -4.0625 7.9375 -2 7 C-0.70079254 3.45411499 -0.70079254 3.45411499 0 0 Z " fill="currentColor" transform="translate(237,331)"/>
<path d="M0 0 C0.33 0.99 0.66 1.98 1 3 C1.66 3.33 2.32 3.66 3 4 C2.34 4 1.68 4 1 4 C1.350625 4.7425 1.70125 5.485 2.0625 6.25 C3.07781286 9.22825106 2.86908259 10.10305803 2 13 C2.33 13.99 2.66 14.98 3 16 C2.34 16.66 1.68 17.32 1 18 C-1 16 -1 16 -1.23046875 12.55859375 C-1.22647911 11.18482696 -1.21173177 9.81105886 -1.1875 8.4375 C-1.18685547 7.73947266 -1.18621094 7.04144531 -1.18554688 6.32226562 C-1.14031158 1.14031158 -1.14031158 1.14031158 0 0 Z " fill="currentColor" transform="translate(141,270)"/>
<path d="M0 0 C0.66 0 1.32 0 2 0 C2 0.66 2 1.32 2 2 C3.65 1.67 5.3 1.34 7 1 C7.28875 1.804375 7.5775 2.60875 7.875 3.4375 C8.73262568 6.1326468 8.73262568 6.1326468 11 7 C10.34 8.32 9.68 9.64 9 11 C8.01 10.34 7.02 9.68 6 9 C6 8.01 6 7.02 6 6 C4.35 5.67 2.7 5.34 1 5 C0.67 3.35 0.34 1.7 0 0 Z " fill="currentColor" transform="translate(8,140)"/>
<path d="M0 0 C1.875 0.25 1.875 0.25 4 1 C5.82700285 3.95544579 6.4999217 6.85671782 7.125 10.25 C7.29257812 11.14203125 7.46015625 12.0340625 7.6328125 12.953125 C7.75398438 13.62859375 7.87515625 14.3040625 8 15 C7.01 14.34 6.02 13.68 5 13 C4.34 12.67 3.68 12.34 3 12 C3 10.02 3 8.04 3 6 C2.34 5.67 1.68 5.34 1 5 C0.375 2.4375 0.375 2.4375 0 0 Z " fill="currentColor" transform="translate(309,252)"/>
<path d="M0 0 C3.51951921 1.90244282 5.99564162 3.49237283 8 7 C8.6875 10.25 8.6875 10.25 9 13 C7.68 13.33 6.36 13.66 5 14 C4.34 10.7 3.68 7.4 3 4 C2.01 3.67 1.02 3.34 0 3 C0 2.01 0 1.02 0 0 Z " fill="currentColor" transform="translate(262,107)"/>
<path d="M0 0 C2.875 0.3125 2.875 0.3125 6 1 C8.1519437 4.22791555 8.20086443 5.28400809 8 9 C8.66 9 9.32 9 10 9 C10.33 10.65 10.66 12.3 11 14 C9.1640625 13.8046875 9.1640625 13.8046875 7 13 C5.5859375 10.8203125 5.5859375 10.8203125 4.375 8.125 C3.04022546 5.2089002 1.78658961 2.67988442 0 0 Z " fill="currentColor" transform="translate(18,151)"/>
<path d="M0 0 C1.60407328 -0.02708567 3.2082785 -0.04643483 4.8125 -0.0625 C5.70582031 -0.07410156 6.59914063 -0.08570312 7.51953125 -0.09765625 C10 0 10 0 13 1 C12.34 2.32 11.68 3.64 11 5 C7.7 4.67 4.4 4.34 1 4 C0.67 2.68 0.34 1.36 0 0 Z " fill="currentColor" transform="translate(63,19)"/>
<path d="M0 0 C0.66 0 1.32 0 2 0 C1.47731534 2.76276177 0.89130413 5.3260876 0 8 C0.66 8 1.32 8 2 8 C1.63076923 14.4 1.63076923 14.4 -1.5625 17.4375 C-2.7690625 18.2109375 -2.7690625 18.2109375 -4 19 C-3.55990101 16.35940606 -3.10504868 14.20426133 -1.875 11.8125 C-1.58625 11.214375 -1.2975 10.61625 -1 10 C-1.33 9.34 -1.66 8.68 -2 8 C-1.72057545 6.32345271 -1.39171753 4.65391846 -1 3 C-0.34 3 0.32 3 1 3 C0.67 2.01 0.34 1.02 0 0 Z " fill="currentColor" transform="translate(136,9)"/>
<path d="M0 0 C2.1519437 3.22791555 2.20086443 4.28400809 2 8 C0.02 8.99 0.02 8.99 -2 10 C-2 11.32 -2 12.64 -2 14 C-2.66 14 -3.32 14 -4 14 C-4.33 14.66 -4.66 15.32 -5 16 C-4.34 13.03 -3.68 10.06 -3 7 C-2.34 7 -1.68 7 -1 7 C-1.020625 6.030625 -1.04125 5.06125 -1.0625 4.0625 C-1 1 -1 1 0 0 Z " fill="currentColor" transform="translate(9,114)"/>
<path d="M0 0 C0 0.66 0 1.32 0 2 C-8.03501094 6.07877462 -8.03501094 6.07877462 -12.0625 5.75 C-12.701875 5.5025 -13.34125 5.255 -14 5 C-9.75346963 1.25306144 -5.73335007 -1.91111669 0 0 Z " fill="currentColor" transform="translate(86,171)"/>
<path d="M0 0 C0.85659135 3.08084955 1.26941369 6.06792001 1.5625 9.25 C1.64628906 10.14203125 1.73007812 11.0340625 1.81640625 11.953125 C1.87699219 12.62859375 1.93757813 13.3040625 2 14 C0.68 14.33 -0.64 14.66 -2 15 C-2.3690205 4.44191344 -2.3690205 4.44191344 0 0 Z " fill="currentColor" transform="translate(41,36)"/>
<path d="M0 0 C2.875 0.1875 2.875 0.1875 6 1 C7.25 3.4375 7.25 3.4375 8 6 C8.66 6.66 9.32 7.32 10 8 C9.34 8 8.68 8 8 8 C7.67 8.66 7.34 9.32 7 10 C4.47411298 7.63707344 3.11179163 6.33537489 2 3 C1.34 3 0.68 3 0 3 C0 2.01 0 1.02 0 0 Z " fill="currentColor" transform="translate(152,35)"/>
<path d="M0 0 C3.875 0.75 3.875 0.75 4.875 1.75 C7.20317964 2.11760731 9.5368385 2.45241581 11.875 2.75 C11.235625 2.87375 10.59625 2.9975 9.9375 3.125 C9.256875 3.33125 8.57625 3.5375 7.875 3.75 C7.545 4.41 7.215 5.07 6.875 5.75 C5.67875 5.255 4.4825 4.76 3.25 4.25 C-0.33601476 2.89088765 -3.25904799 2.4600536 -7.125 2.75 C-5.1154621 -0.38990297 -3.46537647 -0.41609359 0 0 Z " fill="currentColor" transform="translate(233.125,39.25)"/>
<path d="M0 0 C1.485 0.99 1.485 0.99 3 2 C3.29296875 4.6015625 3.29296875 4.6015625 3.1875 7.625 C3.16042969 8.62789062 3.13335937 9.63078125 3.10546875 10.6640625 C3.07066406 11.43492187 3.03585937 12.20578125 3 13 C2.67 12.34 2.34 11.68 2 11 C1.01 11.33 0.02 11.66 -1 12 C-1.02698189 10.37509046 -1.04638757 8.75005367 -1.0625 7.125 C-1.07410156 6.22007812 -1.08570313 5.31515625 -1.09765625 4.3828125 C-1 2 -1 2 0 0 Z " fill="currentColor" transform="translate(274,245)"/>
<path d="M0 0 C1.32 0.66 2.64 1.32 4 2 C0.7 4.31 -2.6 6.62 -6 9 C-6.66 7.68 -7.32 6.36 -8 5 C-6.20963542 3.99088542 -4.41927083 2.98177083 -2.62890625 1.97265625 C-1.02121854 1.1027487 -1.02121854 1.1027487 0 0 Z " fill="currentColor" transform="translate(299,186)"/>
<path d="M0 0 C1.32 0.33 2.64 0.66 4 1 C4 1.66 4 2.32 4 3 C8.67209049 4.43023178 13.13103697 5.40380045 18 6 C15.56661348 7.53508028 14.32875493 8.03088304 11.421875 7.7578125 C10.09929687 7.44457031 10.09929687 7.44457031 8.75 7.125 C7.85796875 6.92132813 6.9659375 6.71765625 6.046875 6.5078125 C5.03367188 6.25644531 5.03367188 6.25644531 4 6 C3.67 4.68 3.34 3.36 3 2 C2.01 2 1.02 2 0 2 C0 1.34 0 0.68 0 0 Z " fill="currentColor" transform="translate(134,28)"/>
<path d="M0 0 C1.06541016 0.42152344 1.06541016 0.42152344 2.15234375 0.8515625 C2.86519531 1.12742188 3.57804687 1.40328125 4.3125 1.6875 C6.08984375 2.4765625 6.08984375 2.4765625 7.08984375 3.4765625 C8.7560149 3.51720082 10.4237247 3.5192835 12.08984375 3.4765625 C8.72046243 5.8632076 5.90108349 5.62527597 1.99609375 5.03515625 C-0.75295088 4.22959604 -2.18575936 2.70390849 -3.91015625 0.4765625 C-1.91015625 -0.5234375 -1.91015625 -0.5234375 0 0 Z " fill="currentColor" transform="translate(44.91015625,172.5234375)"/>
<path d="M0 0 C1 3 1 3 0.1875 5.125 C-1 7 -1 7 -3 8 C-2.67 9.65 -2.34 11.3 -2 13 C-2.99 13 -3.98 13 -5 13 C-6.0625 11.1875 -6.0625 11.1875 -7 9 C-6.67 8.01 -6.34 7.02 -6 6 C-5.01 5.67 -4.02 5.34 -3 5 C-2.67 4.34 -2.34 3.68 -2 3 C-1.34 2.01 -0.68 1.02 0 0 Z " fill="currentColor" transform="translate(248,55)"/>
<path d="M0 0 C0 0.33 0 0.66 0 1 C-1.65 1.33 -3.3 1.66 -5 2 C-5.33 2.99 -5.66 3.98 -6 5 C-8.31 5 -10.62 5 -13 5 C-13.33 4.01 -13.66 3.02 -14 2 C-9.10864341 0.3695478 -5.21374018 -0.10026423 0 0 Z " fill="currentColor" transform="translate(312,145)"/>
<path d="M0 0 C0.33 0 0.66 0 1 0 C1.185625 1.2065625 1.185625 1.2065625 1.375 2.4375 C1.58125 3.283125 1.7875 4.12875 2 5 C2.66 5.33 3.32 5.66 4 6 C4.72693904 7.97888961 5.39816251 9.97954558 6 12 C5.34 12 4.68 12 4 12 C3.67 12.66 3.34 13.32 3 14 C-1.07877462 5.96498906 -1.07877462 5.96498906 -0.75 1.9375 C-0.5025 1.298125 -0.255 0.65875 0 0 Z " fill="currentColor" transform="translate(147,237)"/>
<path d="M0 0 C0.33 0.66 0.66 1.32 1 2 C3.57951874 2.69093896 3.57951874 2.69093896 6.5625 3.125 C7.57441406 3.29257812 8.58632812 3.46015625 9.62890625 3.6328125 C10.80259766 3.81457031 10.80259766 3.81457031 12 4 C10.171875 5.51953125 10.171875 5.51953125 8 7 C5.25 6.6875 5.25 6.6875 3 6 C3 5.34 3 4.68 3 4 C2.01 3.67 1.02 3.34 0 3 C0 2.01 0 1.02 0 0 Z " fill="currentColor" transform="translate(194,35)"/>
<path d="M0 0 C0.99 0.33 1.98 0.66 3 1 C2.67 2.65 2.34 4.3 2 6 C1.01 6 0.02 6 -1 6 C-1.33 8.97 -1.66 11.94 -2 15 C-2.66 15 -3.32 15 -4 15 C-4.33 15.66 -4.66 16.32 -5 17 C-5 16.01 -5 15.02 -5 14 C-4.34 14 -3.68 14 -3 14 C-2.95101562 13.40832031 -2.90203125 12.81664062 -2.8515625 12.20703125 C-2.43543133 7.80895528 -1.95034405 4.03071103 0 0 Z " fill="currentColor" transform="translate(131,186)"/>
<path d="M0 0 C2.04219706 1.69179328 2.91793306 2.63727666 3.51171875 5.26171875 C3.56972656 6.06222656 3.62773437 6.86273438 3.6875 7.6875 C3.75324219 8.49574219 3.81898438 9.30398438 3.88671875 10.13671875 C3.92410156 10.75160156 3.96148437 11.36648438 4 12 C3.01 12.33 2.02 12.66 1 13 C-0.32229189 10.35541621 -0.09677194 8.32238699 -0.0625 5.375 C-0.05347656 4.37210937 -0.04445312 3.36921875 -0.03515625 2.3359375 C-0.02355469 1.56507813 -0.01195312 0.79421875 0 0 Z " fill="currentColor" transform="translate(152,305)"/>
<path d="M0 0 C2.07384637 2.28176413 2.98397191 3.44323483 3.07421875 6.578125 C2.94660156 7.45984375 2.81898438 8.3415625 2.6875 9.25 C2.50767578 10.58804687 2.50767578 10.58804687 2.32421875 11.953125 C2.21722656 12.62859375 2.11023438 13.3040625 2 14 C-0.81340521 11.18659479 -0.669115 8.90444304 -1 5 C-0.5625 2.0625 -0.5625 2.0625 0 0 Z " fill="currentColor" transform="translate(250,300)"/>
<path d="M0 0 C0 0.33 0 0.66 0 1 C2.64 1.33 5.28 1.66 8 2 C8 2.33 8 2.66 8 3 C3.05 3.33 -1.9 3.66 -7 4 C-7.33 3.01 -7.66 2.02 -8 1 C-5.29120665 -0.35439668 -2.99066732 -0.06501451 0 0 Z " fill="currentColor" transform="translate(64,172)"/>
<path d="M0 0 C-0.33 2.31 -0.66 4.62 -1 7 C-1.99 7.33 -2.98 7.66 -4 8 C-4.33 6.35 -4.66 4.7 -5 3 C-5.99 2.67 -6.98 2.34 -8 2 C-4.77208445 -0.1519437 -3.71599191 -0.20086443 0 0 Z " fill="currentColor" transform="translate(327,141)"/>
<path d="M0 0 C0.763125 0.20625 1.52625 0.4125 2.3125 0.625 C2.3125 1.285 2.3125 1.945 2.3125 2.625 C2.9725 2.955 3.6325 3.285 4.3125 3.625 C-0.35416667 3.625 -5.02083333 3.625 -9.6875 3.625 C-8.7903125 3.191875 -8.7903125 3.191875 -7.875 2.75 C-1.98831301 -0.27743902 -1.98831301 -0.27743902 0 0 Z " fill="currentColor" transform="translate(131.6875,7.375)"/>
<path d="M0 0 C2.83022097 3.99560608 1.76210446 7.42737323 1 12 C0.34 12 -0.32 12 -1 12 C-1.2226746 10.56465159 -1.42761906 9.12654475 -1.625 7.6875 C-1.74101562 6.88699219 -1.85703125 6.08648437 -1.9765625 5.26171875 C-2 3 -2 3 0 0 Z " fill="currentColor" transform="translate(288,289)"/>
<path d="M0 0 C0.33 1.32 0.66 2.64 1 4 C0.01 4.495 0.01 4.495 -1 5 C-0.67 5.99 -0.34 6.98 0 8 C-1.65 8 -3.3 8 -5 8 C-4.75 5.125 -4.75 5.125 -4 2 C-1.9375 0.625 -1.9375 0.625 0 0 Z " fill="currentColor" transform="translate(272,220)"/>
<path d="M0 0 C0.33 0.99 0.66 1.98 1 3 C0.67 3.33 0.34 3.66 0 4 C0.33 4 0.66 4 1 4 C1 6.64 1 9.28 1 12 C0.34 12 -0.32 12 -1 12 C-1 11.34 -1 10.68 -1 10 C-1.66 10 -2.32 10 -3 10 C-2.67 7.36 -2.34 4.72 -2 2 C-1.34 2 -0.68 2 0 2 C0 1.34 0 0.68 0 0 Z " fill="currentColor" transform="translate(8,88)"/>
<path d="M0 0 C2.78637633 4.1795645 1.79562512 6.14668677 1 11 C0.01 11 -0.98 11 -2 11 C-2 8.66666667 -2 6.33333333 -2 4 C-1.34 4 -0.68 4 0 4 C0 2.68 0 1.36 0 0 Z " fill="currentColor" transform="translate(324,145)"/>
<path d="M0 0 C3.3 0.66 6.6 1.32 10 2 C9.67 2.66 9.34 3.32 9 4 C5.04 3.67 1.08 3.34 -3 3 C-2.01 2.67 -1.02 2.34 0 2 C0 1.34 0 0.68 0 0 Z " fill="currentColor" transform="translate(66,171)"/>
<path d="M0 0 C0.99 0 1.98 0 3 0 C3 2.31 3 4.62 3 7 C1.68 7 0.36 7 -1 7 C-1.04254356 5.00045254 -1.04080783 2.99958364 -1 1 C-0.67 0.67 -0.34 0.34 0 0 Z " fill="currentColor" transform="translate(9,100)"/>
<path d="M0 0 C1.134375 0.020625 2.26875 0.04125 3.4375 0.0625 C2.4475 0.5575 2.4475 0.5575 1.4375 1.0625 C1.4375 2.0525 1.4375 3.0425 1.4375 4.0625 C-1.8625 3.7325 -5.1625 3.4025 -8.5625 3.0625 C-7.2425 2.4025 -5.9225 1.7425 -4.5625 1.0625 C-3.5625 0.0625 -3.5625 0.0625 0 0 Z " fill="currentColor" transform="translate(117.5625,8.9375)"/>
<path d="M0 0 C0.33 0 0.66 0 1 0 C1.103125 0.94875 1.20625 1.8975 1.3125 2.875 C1.68539295 6.29107501 1.68539295 6.29107501 5 8 C5 8.66 5 9.32 5 10 C4.34 10 3.68 10 3 10 C2.67 11.32 2.34 12.64 2 14 C0.4087311 9.126739 -0.21192221 5.19209404 0 0 Z " fill="currentColor" transform="translate(154,318)"/>
<path d="M0 0 C0.598125 0.350625 1.19625 0.70125 1.8125 1.0625 C1.4825 2.3825 1.1525 3.7025 0.8125 5.0625 C-1.1875 4.0625 -3.1875 3.0625 -5.1875 2.0625 C-5.1875 1.4025 -5.1875 0.7425 -5.1875 0.0625 C-2.1875 -0.9375 -2.1875 -0.9375 0 0 Z " fill="currentColor" transform="translate(130.1875,175.9375)"/>
<path d="M0 0 C2.475 0.99 2.475 0.99 5 2 C5 3.32 5 4.64 5 6 C7.64 6.33 10.28 6.66 13 7 C13 7.33 13 7.66 13 8 C10.03 8 7.06 8 4 8 C2.68 5.36 1.36 2.72 0 0 Z " fill="currentColor" transform="translate(108,170)"/>
<path d="M0 0 C0.66 0 1.32 0 2 0 C5.00559652 5.00932754 5.29341888 8.32723489 5 14 C4.67 14 4.34 14 4 14 C3.51171875 11.98177083 3.0234375 9.96354167 2.53515625 7.9453125 C2.05153008 5.9414343 2.05153008 5.9414343 1 4 C0.01 3.67 -0.98 3.34 -2 3 C-1.01 3 -0.02 3 1 3 C0.67 2.01 0.34 1.02 0 0 Z " fill="currentColor" transform="translate(245,41)"/>
<path d="M0 0 C0.33 0.66 0.66 1.32 1 2 C1.66 2.33 2.32 2.66 3 3 C1.35 5.31 -0.3 7.62 -2 10 C-3.07529543 5.69881829 -2.84830433 4.79929223 -1 1 C-0.67 0.67 -0.34 0.34 0 0 Z " fill="currentColor" transform="translate(233,338)"/>
<path d="M0 0 C1.65 1.65 3.3 3.3 5 5 C4.67 5.99 4.34 6.98 4 8 C1 7 1 7 -0.25 4.5625 C-1 2 -1 2 0 0 Z " fill="currentColor" transform="translate(136,212)"/>
<path d="M0 0 C2.80045623 3.14591933 3.35261589 5.067064 3.1875 9.25 C3.16042969 10.14203125 3.13335937 11.0340625 3.10546875 11.953125 C3.07066406 12.62859375 3.03585937 13.3040625 3 14 C2.67 14 2.34 14 2 14 C1.67 11.36 1.34 8.72 1 6 C0.34 6 -0.32 6 -1 6 C-0.67 4.02 -0.34 2.04 0 0 Z " fill="currentColor" transform="translate(259,91)"/>
<path d="M0 0 C-1.23789629 3.71368887 -2.85224877 4.77354181 -6 7 C-6.66 7 -7.32 7 -8 7 C-6.53112033 2.34854772 -6.53112033 2.34854772 -4 0.6875 C-2 0 -2 0 0 0 Z " fill="currentColor" transform="translate(51,29)"/>
<path d="M0 0 C0.99 0.33 1.98 0.66 3 1 C3.33 2.98 3.66 4.96 4 7 C2.35 6.67 0.7 6.34 -1 6 C-1.042721 4.33388095 -1.04063832 2.66617115 -1 1 C-0.67 0.67 -0.34 0.34 0 0 Z " fill="currentColor" transform="translate(172,365)"/>
<path d="M0 0 C0.33 0 0.66 0 1 0 C1.125 2.375 1.125 2.375 1 5 C0.34 5.66 -0.32 6.32 -1 7 C-1 7.99 -1 8.98 -1 10 C-2.65 10.33 -4.3 10.66 -6 11 C-5.34 10.67 -4.68 10.34 -4 10 C-3.34227572 6.97065509 -3.34227572 6.97065509 -3 4 C-2.01 4 -1.02 4 0 4 C0 2.68 0 1.36 0 0 Z " fill="currentColor" transform="translate(308,253)"/>
<path d="M0 0 C1.32 0.66 2.64 1.32 4 2 C1.03 4.475 1.03 4.475 -2 7 C-2.99 6.34 -3.98 5.68 -5 5 C-3.625 3.5 -3.625 3.5 -2 2 C-1.34 2 -0.68 2 0 2 C0 1.34 0 0.68 0 0 Z " fill="currentColor" transform="translate(288,194)"/>
<path d="M0 0 C2.475 0.495 2.475 0.495 5 1 C5 1.99 5 2.98 5 4 C4.01 4.33 3.02 4.66 2 5 C1.67 6.65 1.34 8.3 1 10 C0.67 10 0.34 10 0 10 C0 6.7 0 3.4 0 0 Z " fill="currentColor" transform="translate(6,130)"/>
<path d="M0 0 C0.33 0.66 0.66 1.32 1 2 C1.66 2.33 2.32 2.66 3 3 C1.63016497 6.16115776 1.0109362 6.9927092 -2 9 C-2.99 8.67 -3.98 8.34 -5 8 C-4.34 7.67 -3.68 7.34 -3 7 C-1.94647157 4.69034152 -0.94280904 2.3570226 0 0 Z " fill="currentColor" transform="translate(24,60)"/>
<path d="M0 0 C0 0.33 0 0.66 0 1 C-0.94875 1.28875 -1.8975 1.5775 -2.875 1.875 C-6.05211578 2.76825109 -6.05211578 2.76825109 -8 5 C-9.32 5 -10.64 5 -12 5 C-11 2 -11 2 -8.8125 0.8125 C-5.74609689 -0.07334979 -3.17561845 -0.14770318 0 0 Z " fill="currentColor" transform="translate(191,33)"/>
<path d="M0 0 C0.66 0.33 1.32 0.66 2 1 C1.4375 2.875 1.4375 2.875 0 5 C-3.625 6.25 -3.625 6.25 -7 7 C-7.33 6.34 -7.66 5.68 -8 5 C-7.01 5 -6.02 5 -5 5 C-5 4.34 -5 3.68 -5 3 C-3.68 3.33 -2.36 3.66 -1 4 C-0.67 2.68 -0.34 1.36 0 0 Z " fill="currentColor" transform="translate(302,303)"/>
<path d="M0 0 C1.32 0.33 2.64 0.66 4 1 C1.525 4.465 1.525 4.465 -1 8 C-1.66 7.01 -2.32 6.02 -3 5 C-2.01 3.35 -1.02 1.7 0 0 Z " fill="currentColor" transform="translate(312,171)"/>
<path d="M0 0 C0.33 0.66 0.66 1.32 1 2 C1.66 2.33 2.32 2.66 3 3 C2.34 3 1.68 3 1 3 C0.67 3.99 0.34 4.98 0 6 C-0.66 6 -1.32 6 -2 6 C-2.33 6.99 -2.66 7.98 -3 9 C-3.33 8.34 -3.66 7.68 -4 7 C-1.55555556 1.55555556 -1.55555556 1.55555556 0 0 Z " fill="currentColor" transform="translate(13,79)"/>
<path d="M0 0 C2.0625 1.75 2.0625 1.75 4 4 C3.75 6.25 3.75 6.25 3 8 C2.01 7.67 1.02 7.34 0 7 C-1.17755913 4.05610218 -1.03348696 3.10046087 0 0 Z " fill="currentColor" transform="translate(250,76)"/>
<path d="M0 0 C0.66 0.66 1.32 1.32 2 2 C1.625 5.125 1.625 5.125 1 8 C-0.32 7.67 -1.64 7.34 -3 7 C-2.01 4.69 -1.02 2.38 0 0 Z " fill="currentColor" transform="translate(17,71)"/>
<path d="M0 0 C0.99 0.66 1.98 1.32 3 2 C0.03 4.475 0.03 4.475 -3 7 C-3.33 5.68 -3.66 4.36 -4 3 C-2.68 2.01 -1.36 1.02 0 0 Z " fill="currentColor" transform="translate(226,350)"/>
<path d="M0 0 C1.98 0.99 1.98 0.99 4 2 C3.34 4.31 2.68 6.62 2 9 C0.14223235 5.86501708 -0.20140476 3.62528568 0 0 Z " fill="currentColor" transform="translate(305,287)"/>
<path d="M0 0 C0.99 0.33 1.98 0.66 3 1 C3 2.32 3 3.64 3 5 C3.99 5 4.98 5 6 5 C6 6.98 6 8.96 6 11 C3.02753198 8.45217026 1.58464712 5.54659117 0 2 C0 1.34 0 0.68 0 0 Z " fill="currentColor" transform="translate(140,221)"/>
<path d="M0 0 C0.99 0 1.98 0 3 0 C2.37240135 2.92879371 1.41377341 5.36095629 0 8 C0 7.34 0 6.68 0 6 C-0.66 6 -1.32 6 -2 6 C-2.33 5.01 -2.66 4.02 -3 3 C-2.01 2.34 -1.02 1.68 0 1 C0 0.67 0 0.34 0 0 Z " fill="currentColor" transform="translate(271,215)"/>
<path d="M0 0 C0.99 0.33 1.98 0.66 3 1 C2.67 1.66 2.34 2.32 2 3 C2 3.66 2 4.32 2 5 C0.35 5.33 -1.3 5.66 -3 6 C-2.625 3.5625 -2.625 3.5625 -2 1 C-1.34 0.67 -0.68 0.34 0 0 Z " fill="currentColor" transform="translate(59,16)"/>
<path d="M0 0 C2.875 -0.125 2.875 -0.125 6 0 C6.66 0.66 7.32 1.32 8 2 C7 3 7 3 3.9375 3.0625 C2.968125 3.041875 1.99875 3.02125 1 3 C0.67 2.01 0.34 1.02 0 0 Z " fill="currentColor" transform="translate(182,368)"/>
<path d="M0 0 C0.66 0 1.32 0 2 0 C2.9765625 6.0546875 2.9765625 6.0546875 3 8 C2.34 8.66 1.68 9.32 1 10 C0.67 6.7 0.34 3.4 0 0 Z " fill="currentColor" transform="translate(238,324)"/>
<path d="M0 0 C2.475 0.495 2.475 0.495 5 1 C5.33 2.32 5.66 3.64 6 5 C5.01 5.33 4.02 5.66 3 6 C2.01 4.02 1.02 2.04 0 0 Z " fill="currentColor" transform="translate(148,299)"/>
<path d="M0 0 C0.66 0.33 1.32 0.66 2 1 C0.35 2.65 -1.3 4.3 -3 6 C-3.99 5.67 -4.98 5.34 -6 5 C-6 4.34 -6 3.68 -6 3 C-5.01 2.67 -4.02 2.34 -3 2 C-2.01 1.34 -1.02 0.68 0 0 Z " fill="currentColor" transform="translate(273,273)"/>
<path d="M0 0 C1.89213369 2.38573379 3.02391783 4.07175348 4 7 C3.01 7.66 2.02 8.32 1 9 C0.63877119 7.68942607 0.28619689 6.37646376 -0.0625 5.0625 C-0.35833984 3.96615234 -0.35833984 3.96615234 -0.66015625 2.84765625 C-0.77230469 2.23792969 -0.88445312 1.62820312 -1 1 C-0.67 0.67 -0.34 0.34 0 0 Z " fill="currentColor" transform="translate(146,228)"/>
<path d="M0 0 C0.66 0 1.32 0 2 0 C2 0.66 2 1.32 2 2 C2.99 2 3.98 2 5 2 C5.33 3.32 5.66 4.64 6 6 C4.35 5.67 2.7 5.34 1 5 C0.67 3.35 0.34 1.7 0 0 Z " fill="currentColor" transform="translate(8,140)"/>
<path d="M0 0 C2.1519437 3.22791555 2.20086443 4.28400809 2 8 C1.01 7.67 0.02 7.34 -1 7 C-1.04254356 5.00045254 -1.04080783 2.99958364 -1 1 C-0.67 0.67 -0.34 0.34 0 0 Z " fill="currentColor" transform="translate(9,114)"/>
<path d="M0 0 C2.97 0.33 5.94 0.66 9 1 C9 1.66 9 2.32 9 3 C6.03 2.67 3.06 2.34 0 2 C0 1.34 0 0.68 0 0 Z " fill="currentColor" transform="translate(103,11)"/>
<path d="M0 0 C0.99 0.66 1.98 1.32 3 2 C1.35 3.65 -0.3 5.3 -2 7 C-2.6875 5.1875 -2.6875 5.1875 -3 3 C-1.5625 1.25 -1.5625 1.25 0 0 Z " fill="currentColor" transform="translate(257,282)"/>
<path d="M0 0 C0.33 0.66 0.66 1.32 1 2 C0.34 2 -0.32 2 -1 2 C-1.33 4.64 -1.66 7.28 -2 10 C-5 6.25 -5 6.25 -5 4 C-4.01 4 -3.02 4 -2 4 C-2 3.01 -2 2.02 -2 1 C-1.34 0.67 -0.68 0.34 0 0 Z " fill="currentColor" transform="translate(315,267)"/>
<path d="M0 0 C0.66 0.66 1.32 1.32 2 2 C0.35 3.65 -1.3 5.3 -3 7 C-3.33 5.68 -3.66 4.36 -4 3 C-2.68 2.01 -1.36 1.02 0 0 Z " fill="currentColor" transform="translate(308,178)"/>
<path d="M0 0 C1.32 0.66 2.64 1.32 4 2 C1.82575883 4.50037734 0.26954202 5.43628586 -3 6 C-2.01 4.02 -1.02 2.04 0 0 Z " fill="currentColor" transform="translate(55,22)"/>
<path d="M0 0 C0.88492145 2.47778006 1.11637742 3.66056586 0.25 6.1875 C-1 8 -1 8 -4 9 C-3.35455571 5.51460083 -1.89865603 2.97180943 0 0 Z " fill="currentColor" transform="translate(305,296)"/>
<path d="M0 0 C0.33 0.66 0.66 1.32 1 2 C1.99 2.33 2.98 2.66 4 3 C1.1875 4.125 1.1875 4.125 -2 5 C-2.99 4.34 -3.98 3.68 -5 3 C-3.35 2.01 -1.7 1.02 0 0 Z " fill="currentColor" transform="translate(77,172)"/>
<path d="M0 0 C2.475 0.495 2.475 0.495 5 1 C5.33 2.65 5.66 4.3 6 6 C4.125 5.8125 4.125 5.8125 2 5 C0.75 2.4375 0.75 2.4375 0 0 Z " fill="currentColor" transform="translate(23,159)"/>
<path d="M0 0 C0.99 0.33 1.98 0.66 3 1 C4.1875 4.0625 4.1875 4.0625 5 7 C2 6 2 6 0 3 C0 2.01 0 1.02 0 0 Z " fill="currentColor" transform="translate(286,135)"/>
<path d="M0 0 C0.66 0.33 1.32 0.66 2 1 C2 1.66 2 2.32 2 3 C2.66 3.33 3.32 3.66 4 4 C3.34 4.66 2.68 5.32 2 6 C0.68 4.68 -0.64 3.36 -2 2 C-1.34 1.34 -0.68 0.68 0 0 Z " fill="currentColor" transform="translate(270,121)"/>
<path d="M0 0 C1 3 1 3 0.3125 5.125 C-1 7 -1 7 -3.125 7.75 C-4.053125 7.87375 -4.053125 7.87375 -5 8 C-5 7.01 -5 6.02 -5 5 C-4.34 5 -3.68 5 -3 5 C-2.67 4.34 -2.34 3.68 -2 3 C-1.34 2.01 -0.68 1.02 0 0 Z " fill="currentColor" transform="translate(248,55)"/>
<path d="M0 0 C2.97 0.495 2.97 0.495 6 1 C5 4 5 4 3 5 C2.67 4.34 2.34 3.68 2 3 C1.34 3 0.68 3 0 3 C0 2.01 0 1.02 0 0 Z " fill="currentColor" transform="translate(152,35)"/>
<path d="M0 0 C0.66 0.33 1.32 0.66 2 1 C0.63016497 4.16115776 0.0109362 4.9927092 -3 7 C-2.25 2.25 -2.25 2.25 0 0 Z " fill="currentColor" transform="translate(135,21)"/>
<path d="M0 0 C-0.3125 1.9375 -0.3125 1.9375 -1 4 C-1.99 4.33 -2.98 4.66 -4 5 C-4.66 4.34 -5.32 3.68 -6 3 C-3.375 0 -3.375 0 0 0 Z " fill="currentColor" transform="translate(83,16)"/>
</svg>
