<?xml version="1.0" encoding="UTF-8"?>
<svg version="1.1" xmlns="http://www.w3.org/2000/svg" viewBox="0 0 512 390" fill="currentColor">
<path d="M0 0 C7.625 0.875 7.625 0.875 11 2 C14.31126185 2.19499252 17.61598178 2.34412211 20.93164062 2.4296875 C25.62926194 2.64061905 28.85762242 3.56789762 33 6 C33 6.99 33 7.98 33 9 C30 11.1875 30 11.1875 27 13 C27.73001221 12.99476318 28.46002441 12.98952637 29.2121582 12.98413086 C32.57892974 12.96310683 35.94568739 12.95025998 39.3125 12.9375 C40.46041016 12.92912109 41.60832031 12.92074219 42.79101562 12.91210938 C49.92131349 12.89191023 56.91344572 13.20281881 64 14 C64 13.34 64 12.68 64 12 C73.99489682 10.27011401 81.57608389 15.34519589 90 20 C90.66 20.33 91.32 20.66 92 21 C92.33 20.01 92.66 19.02 93 18 C97.95 18 102.9 18 108 18 C108 17.34 108 16.68 108 16 C119.68474537 15.47680245 129.92840115 15.77719938 141.15209961 19.21704102 C147.83898488 21.18717685 153.75291056 21.3237367 160.6796875 20.8828125 C164.67639464 21.02387275 167.16659546 22.16659546 170 25 C171.41327947 25.15620555 172.8335459 25.25056173 174.25390625 25.31640625 C175.53491211 25.37924805 175.53491211 25.37924805 176.84179688 25.44335938 C177.73962891 25.48267578 178.63746094 25.52199219 179.5625 25.5625 C180.46419922 25.60568359 181.36589844 25.64886719 182.29492188 25.69335938 C184.52978485 25.79978142 186.76476308 25.90179988 189 26 C189 25.34 189 24.68 189 24 C192.37462715 24.54723683 194.08235 25.0549 197 27 C197.99 27 198.98 27 200 27 C199.01 26.01 198.02 25.02 197 24 C212.43148519 23.45854438 230.22234949 26.22194119 244.609375 32.05859375 C248.0137926 33.39922225 251.53545253 33.94462707 255.125 34.5625 C262.65714286 35.88571429 262.65714286 35.88571429 266 37 C265.690625 37.8971875 265.690625 37.8971875 265.375 38.8125 C264.69328085 41.28450846 264.69328085 41.28450846 267 44 C263.10974768 45.29675077 261.47036454 44.36921999 257.625 43.0625 C251.93520547 41.06066 251.93520547 41.06066 246 41 C245.34 41.99 244.68 42.98 244 44 C244.886875 44.268125 245.77375 44.53625 246.6875 44.8125 C249.7909666 45.9250635 252.31110685 47.10195778 255 49 C255 49.66 255 50.32 255 51 C254.09507812 51.14695312 254.09507812 51.14695312 253.171875 51.296875 C248.33527786 52.20178672 245.03817212 52.82251333 242 57 C241.67 57.99 241.34 58.98 241 60 C240.35933594 59.89300781 239.71867187 59.78601563 239.05859375 59.67578125 C232.97887266 58.83313734 229.40813748 59.06079485 224 62 C224.33 63.32 224.66 64.64 225 66 C226.1446875 66.0928125 226.1446875 66.0928125 227.3125 66.1875 C230 67 230 67 231.5625 69.15625 C235.25057264 76.45221979 236.47676818 84.89494091 236 93 C232.51205562 92.4120846 230.7852885 91.19060633 228.25 88.76171875 C227.5590625 88.10623047 226.868125 87.45074219 226.15625 86.77539062 C225.4446875 86.08638672 224.733125 85.39738281 224 84.6875 C223.2884375 84.01009766 222.576875 83.33269531 221.84375 82.63476562 C220.478515 81.33193409 219.11822705 80.02389278 217.76367188 78.70996094 C216.36565563 77.35451994 214.95125952 76.0159761 213.53125 74.68359375 C212 73 212 73 211.5 70.375 C212.20947348 65.58605398 214.0486678 61.40792006 216 57 C214.515 55.515 214.515 55.515 213 54 C212.34 54.99 211.68 55.98 211 57 C208.5625 56.625 208.5625 56.625 206 56 C205.67 55.34 205.34 54.68 205 54 C202.69 54 200.38 54 198 54 C197.67 55.65 197.34 57.3 197 59 C197.99 59.66 198.98 60.32 200 61 C200 61.66 200 62.32 200 63 C197.77109005 64.11445498 196.46944894 64.16480286 194 64.1875 C192.948125 64.20876953 192.948125 64.20876953 191.875 64.23046875 C190 64 190 64 188 62 C185.45809998 61.7499227 185.45809998 61.7499227 183 62 C182.67 62.33 182.34 62.66 182 63 C179.30764224 63.23678716 176.63501844 63.42198025 173.9375 63.5625 C172.79958008 63.62727539 172.79958008 63.62727539 171.63867188 63.69335938 C169.75934562 63.79973633 167.87969756 63.90039934 166 64 C165.566875 65.19625 165.13375 66.3925 164.6875 67.625 C163.3470416 71.21232201 161.78178816 74.60611779 160 78 C161.65 78.66 163.3 79.32 165 80 C165 80.66 165 81.32 165 82 C165.70125 81.84660156 166.4025 81.69320312 167.125 81.53515625 C171.09466162 80.88253525 174.49157967 80.357621 178.265625 81.96484375 C185.63431136 87.66542197 190.12128186 97.51847258 191.57421875 106.58203125 C191.80520371 113.42396504 190.77412367 118.28489845 187 124 C183.91111478 126.05925681 183.29064073 126.2390374 179.8125 126.125 C178.554375 126.08375 177.29625 126.0425 176 126 C176.05220703 126.93972656 176.05220703 126.93972656 176.10546875 127.8984375 C176.13253906 128.71570313 176.15960938 129.53296875 176.1875 130.375 C176.22230469 131.18710938 176.25710938 131.99921875 176.29296875 132.8359375 C176.19628906 133.55007812 176.09960938 134.26421875 176 135 C174.515 135.99 174.515 135.99 173 137 C174.42886024 140.39354306 176.15317457 142.19742061 179 144.5 C181.82743413 146.78689525 183.69036085 148.56736685 185 152 C184.875 154.625 184.875 154.625 184 157 C181.10189884 159.09862498 179.71621139 159 176 159 C175.58427734 157.95199219 175.58427734 157.95199219 175.16015625 156.8828125 C174.79792969 155.97273437 174.43570312 155.06265625 174.0625 154.125 C173.70285156 153.22007812 173.34320313 152.31515625 172.97265625 151.3828125 C171.58208556 147.60904469 171.58208556 147.60904469 168.0625 145.6875 C165 144 165 144 163.625 141.3125 C163.41875 140.549375 163.2125 139.78625 163 139 C161.9275 139.165 160.855 139.33 159.75 139.5 C156 140 156 140 152 140 C151.67 138.35 151.34 136.7 151 135 C150.01 134.67 149.02 134.34 148 134 C147.62875 135.175625 147.62875 135.175625 147.25 136.375 C145.8175952 139.38305008 144.9690761 139.75490357 142 141 C141.67 141.66 141.34 142.32 141 143 C143.31 143.66 145.62 144.32 148 145 C148 145.66 148 146.32 148 147 C148.99 147 149.98 147 151 147 C151 146.34 151 145.68 151 145 C153.97 145.33 156.94 145.66 160 146 C159.67 147.32 159.34 148.64 159 150 C158.01 150 157.02 150 156 150 C154.5393715 152.64738916 154 153.89448334 154 157 C155.61838719 158.71358643 157.29671681 160.3707726 159 162 C164.93751047 168.06265706 164.93751047 168.06265706 165.1875 171.8125 C165.125625 172.534375 165.06375 173.25625 165 174 C165.99 174.66 166.98 175.32 168 176 C169.14332039 183.34991679 166.94849923 191.76117864 162.72802734 197.82861328 C157.6331365 204.19256118 152.68567392 209.41926464 144.3125 210.5 C143.33925781 210.5103125 142.36601562 210.520625 141.36328125 210.53125 C140.19345703 210.76328125 140.19345703 210.76328125 139 211 C137.59397648 213.44828575 137.59397648 213.44828575 137 216 C137.66 216 138.32 216 139 216 C139.125 218.875 139.125 218.875 139 222 C137 224 137 224 134.375 224.125 C133.59125 224.08375 132.8075 224.0425 132 224 C131.34 222.35 130.68 220.7 130 219 C131.32 218.34 132.64 217.68 134 217 C133.34 215.35 132.68 213.7 132 212 C127.83201741 212.42300834 127.83201741 212.42300834 124.1875 214.3125 C122.78698595 216.30270418 122.26693262 217.57536206 122 220 C123.20556143 221.96094279 123.20556143 221.96094279 125.0625 223.75 C131.78235742 230.9940063 136.69045945 236.89629096 137.4375 247.125 C136.88964655 251.97741625 135.74564557 252.97160571 132 256 C131.4225 256.54011719 130.845 257.08023437 130.25 257.63671875 C125.53074009 262 125.53074009 262 121 262 C120.773125 261.113125 120.54625 260.22625 120.3125 259.3125 C118.81610233 255.5358773 116.95509439 253.73346231 114 251 C113.34 250.01 112.68 249.02 112 248 C110.34183216 247.31246699 108.67540664 246.64438717 107 246 C106.67 245.34 106.34 244.68 106 244 C105.66179834 245.5823006 105.32964061 247.16589375 105 248.75 C104.814375 249.63171875 104.62875 250.5134375 104.4375 251.421875 C103.88846325 254.22143965 103.88846325 254.22143965 104 258 C104.474375 258.433125 104.94875 258.86625 105.4375 259.3125 C107.81679282 261.88213625 107.68019842 264.61010321 108 268 C108.70125 268 109.4025 268 110.125 268 C114.63384763 269.56829483 116.78493689 272.8699791 119 277 C119.4609375 279.1328125 119.4609375 279.1328125 119.625 281.1875 C120.05066042 285.51504762 121.18917449 286.82648732 124 290 C124 290.99 124 291.98 124 293 C122.35 293 120.7 293 119 293 C119.42006712 297.10365499 119.42006712 297.10365499 121.1875 300.75 C123.63374523 302.43706568 126.16066921 303.17974888 129 304 C129 304.66 129 305.32 129 306 C129.66 306 130.32 306 131 306 C130 309 130 309 128 310 C127.5720382 311.86309092 127.5720382 311.86309092 127.4375 314 C127.09589041 317.90410959 127.09589041 317.90410959 126 319 C122.765625 319.4453125 122.765625 319.4453125 119 319 C116.83560354 316.93954349 115.3973631 315.28833448 113.75 312.875 C113.32976562 312.30523437 112.90953125 311.73546875 112.4765625 311.1484375 C109.91021529 307.59751684 107.90505023 303.95355304 106 300 C105.505 299.360625 105.01 298.72125 104.5 298.0625 C103 296 103 296 101.5625 292.5 C100.03827159 289.08572835 98.76807241 287.42206336 96 285 C95 284 94 283 93 282 C92.29875 281.34 91.5975 280.68 90.875 280 C89 278 89 278 88 275 C89 274 89 274 91.75 273.6875 C95.71287721 274.06854589 97.1823945 275.26289752 100 278 C100.33 278.66 100.66 279.32 101 280 C101.66 280.28875 102.32 280.5775 103 280.875 C105 282 105 282 105.75 284.125 C105.8325 284.74375 105.915 285.3625 106 286 C107.65 286 109.3 286 111 286 C110.1028125 285.071875 110.1028125 285.071875 109.1875 284.125 C107.13910378 281.19871968 106.48930391 279.54638166 105.625 276.1875 C104.62563433 272.39546248 103.53690173 270.23337543 100.875 267.375 C97.3447567 263.057374 97.44310258 258.9450626 97.33374023 253.51318359 C97.11617515 245.40017209 95.07794181 237.80919527 93 230 C92.24332031 230.49113281 91.48664063 230.98226562 90.70703125 231.48828125 C87.55074075 233.25088504 85.5578693 233.24822344 82 233 C81.814375 231.700625 81.814375 231.700625 81.625 230.375 C81.01798578 227.09712319 80.093379 224.14346462 79 221 C78.87625 220.2575 78.7525 219.515 78.625 218.75 C78.15950173 216.80947533 78.15950173 216.80947533 76.125 216.0625 C73.25319621 214.62659811 72.41291454 212.82582909 71 210 C71 209.34 71 208.68 71 208 C70.2265625 208.2165625 70.2265625 208.2165625 69.4375 208.4375 C65.57379867 209.32912338 61.62875476 209.8239184 57.6875 210.25 C57.130625 210.4975 56.57375 210.745 56 211 C55.731875 211.70125 55.46375 212.4025 55.1875 213.125 C53.4698351 217.28355712 50.46322596 220.16570895 47 223 C46.34 223 45.68 223 45 223 C45 223.66 45 224.32 45 225 C44.01 225.66 43.02 226.32 42 227 C40.80767387 229.05003955 40.80767387 229.05003955 40 231 C39.01 231 38.02 231 37 231 C37 231.66 37 232.32 37 233 C36.34 233.33 35.68 233.66 35 234 C35.01160156 234.76183594 35.02320313 235.52367187 35.03515625 236.30859375 C35.19409909 254.49619595 35.19409909 254.49619595 29 261 C28.67 261.99 28.34 262.98 28 264 C26.68 264 25.36 264 24 264 C21.85543459 261.2780516 20.97509683 258.90868837 20.0625 255.5625 C19.18111874 251.9600913 19.18111874 251.9600913 17.0625 249.125 C14.90562452 245.85700685 13.91882486 242.99361895 12.78515625 239.2890625 C12.01472154 237.04291951 11.06390464 235.08655029 9.9375 233 C6.21993325 225.82027185 5.63099893 217.95390761 5 210 C4.4225 210.680625 3.845 211.36125 3.25 212.0625 C1 214 1 214 -1 214 C-3.51850179 212.7407491 -5.1230616 211.07803895 -7 209 C-6.67 208.01 -6.34 207.02 -6 206 C-7.051875 205.46375 -8.10375 204.9275 -9.1875 204.375 C-12.18522329 202.84674891 -13.13245224 201.79571789 -15.03125 198.8671875 C-16.78894458 196.68068095 -17.63027185 196.06915885 -20.42504883 195.54638672 C-23.40689908 195.48065818 -26.33500657 195.57673663 -29.3125 195.75 C-42.63653211 196.32967638 -42.63653211 196.32967638 -49 194 C-50.04289971 192.69994694 -51.053108 191.37155872 -52 190 C-54.21675716 189.74164447 -54.21675716 189.74164447 -56.625 190.125 C-62.7884231 190.37730387 -66.50580032 188.07143243 -71 184 C-72.57086932 182.06422619 -73.74095796 180.1655523 -75 178 C-77.28705831 176.85647084 -78.59264762 176.89665561 -81.125 176.9375 C-83.043125 176.9684375 -83.043125 176.9684375 -85 177 C-84.88693303 178.95894361 -84.88693303 178.95894361 -84 181 C-82.34302621 181.69040574 -80.6744239 182.3530635 -79 183 C-77.31337542 184.64646685 -75.64488294 186.31183067 -74 188 C-73.01 188.33 -72.02 188.66 -71 189 C-71 189.99 -71 190.98 -71 192 C-69.02 192.99 -69.02 192.99 -67 194 C-67 195.65 -67 197.3 -67 199 C-62.93855775 198.80054109 -62.93855775 198.80054109 -59 198 C-56.68392126 195.54366927 -56.68392126 195.54366927 -55 193 C-54.01 193 -53.02 193 -52 193 C-51.649375 194.11375 -51.29875 195.2275 -50.9375 196.375 C-50.1882018 198.3446329 -50.1882018 198.3446329 -49 200 C-46.68970915 200.74259349 -44.354248 201.411438 -42 202 C-40 204.3125 -40 204.3125 -39 207 C-39.99450674 215.48093251 -46.14861267 221.5391729 -52.265625 226.98046875 C-59.88121112 232.60512307 -68.144748 236.6417197 -76.8125 240.375 C-78.3274707 241.04982422 -78.3274707 241.04982422 -79.87304688 241.73828125 C-80.84951172 242.16238281 -81.82597656 242.58648437 -82.83203125 243.0234375 C-83.70577393 243.40419434 -84.5795166 243.78495117 -85.47973633 244.17724609 C-88.13625708 245.04448187 -90.224786 245.15748102 -93 245 C-95.26824232 240.84155575 -97.09041994 237.23377646 -97.9375 232.5625 C-99.22200936 226.0952746 -101.83034008 220.64894154 -107.125 216.625 C-110.26507121 213.75797846 -110.39636745 213.13144225 -111.1875 209.1875 C-112.95707303 201.20813697 -118.05686573 195.20808672 -122.77416992 188.72021484 C-125.17932508 185.3450459 -127.20491515 182.17291366 -128.1875 178.125 C-128.34605469 177.50882813 -128.50460938 176.89265625 -128.66796875 176.2578125 C-129.61147769 169.84195174 -128.56759563 164.24285169 -127 158.0625 C-126.80921875 157.28326172 -126.6184375 156.50402344 -126.421875 155.70117188 C-125.9550862 153.79900752 -125.47854864 151.89923991 -125 150 C-125.7425 150.32613281 -126.485 150.65226563 -127.25 150.98828125 C-132.53161899 152.93137687 -137.5894912 152.14768368 -143 151 C-143.33 151.33 -143.66 151.66 -144 152 C-149.26026623 151.6965231 -152.34536162 150.85767385 -156 147 C-158.63870885 142.1775321 -159.42079469 138.47033097 -159 133 C-158.67 132.01 -158.34 131.02 -158 130 C-154.04140323 128.90038979 -152.56631805 129.16280585 -149 131 C-145.16820164 131.43543163 -142.63352656 130.91646317 -139.1875 129.375 C-133.4758426 127.04883742 -128.55347414 128.9677445 -123.0625 131.1875 C-118.60431913 132.37028268 -114.51820551 131.66076523 -110 131 C-110.09519454 129.10423634 -110.09519454 129.10423634 -111 127 C-113.4271387 125.12618179 -113.4271387 125.12618179 -116.375 123.5 C-120.04266094 121.37101476 -122.80830903 119.69520593 -125 116 C-124.90692645 112.46320496 -123.93880997 110.91361408 -121.875 108 C-119.67706057 105.20006513 -119.67706057 105.20006513 -120.3828125 102.3125 C-120.58648437 101.549375 -120.79015625 100.78625 -121 100 C-121.89203125 99.76925781 -122.7840625 99.53851563 -123.703125 99.30078125 C-124.87359375 98.97464844 -126.0440625 98.64851563 -127.25 98.3125 C-128.41015625 97.99925781 -129.5703125 97.68601562 -130.765625 97.36328125 C-134.46213052 95.8052131 -135.59867558 94.12172174 -138 91 C-140.31810557 89.99424463 -140.31810557 89.99424463 -142.75 89.6875 C-143.54921875 89.54699219 -144.3484375 89.40648438 -145.171875 89.26171875 C-145.77515625 89.17535156 -146.3784375 89.08898437 -147 89 C-147.33 87.68 -147.66 86.36 -148 85 C-147.01 84.505 -147.01 84.505 -146 84 C-146.639375 83.401875 -147.27875 82.80375 -147.9375 82.1875 C-150 80 -150 80 -151 77 C-153.32671865 75.98470459 -155.6603447 74.98511802 -158 74 C-160.93337544 69.59993684 -161.19706183 65.2330865 -161 60 C-159.74546037 56.36505185 -157.72149187 53.72149187 -155 51 C-155.27401168 46.70715033 -155.97681907 44.90225369 -159 42 C-159.72693904 40.02111039 -160.39816251 38.02045442 -161 36 C-161.33 35.34 -161.66 34.68 -162 34 C-161.67 33.01 -161.34 32.02 -161 31 C-161.66 31 -162.32 31 -163 31 C-162.875 29.1875 -162.875 29.1875 -162 27 C-158.18373101 24.36495713 -155.63509497 23.75168272 -151.09570312 24.51245117 C-146.8056993 25.51048678 -142.69657943 27.05946896 -138.5625 28.5625 C-137.64017578 28.89185547 -136.71785156 29.22121094 -135.76757812 29.56054688 C-133.5095352 30.36782647 -131.25384435 31.18108727 -129 32 C-129 33.65 -129 35.3 -129 37 C-126.03 36.505 -126.03 36.505 -123 36 C-123 33.69 -123 31.38 -123 29 C-120.69 29.33 -118.38 29.66 -116 30 C-116.33 31.32 -116.66 32.64 -117 34 C-115.68 34.33 -114.36 34.66 -113 35 C-113 34.01 -113 33.02 -113 32 C-106.00708993 29.00487492 -101.47076946 27.6745409 -94 29 C-91.60273113 28.86080374 -89.26093197 28.58120841 -86.8828125 28.25390625 C-85 28 -85 28 -83 28 C-83.825 27.54625 -84.65 27.0925 -85.5 26.625 C-86.325 26.08875 -87.15 25.5525 -88 25 C-88 24.34 -88 23.68 -88 23 C-79.61843511 23.38624723 -71.98734511 25.5255343 -64 28 C-65.05270463 26.84188612 -65.05270463 26.84188612 -67 26 C-68.40020089 23.19959823 -69.32003799 21.15121578 -68.45703125 18.046875 C-67.71366968 16.32981446 -66.86322084 14.66004009 -66 13 C-59.375 13.75 -59.375 13.75 -56 16 C-55.3125 18.125 -55.3125 18.125 -55 20 C-54.67 19.34 -54.34 18.68 -54 18 C-53.34 18 -52.68 18 -52 18 C-52.495 16.515 -52.495 16.515 -53 15 C-52.01 15 -51.02 15 -50 15 C-49.505 16.485 -49.505 16.485 -49 18 C-48.01 17.34 -47.02 16.68 -46 16 C-44.0103005 15.60986284 -42.00980131 15.26797351 -40 15 C-40 14.01 -40 13.02 -40 12 C-36.7 11.67 -33.4 11.34 -30 11 C-29.67 10.01 -29.34 9.02 -29 8 C-24.79664643 5.69259286 -20.25104147 5.37196096 -15.5625 4.875 C-14.82451172 4.78863281 -14.08652344 4.70226563 -13.32617188 4.61328125 C-9.19570191 4.15066861 -5.16345039 3.90762551 -1 4 C-0.67 2.68 -0.34 1.36 0 0 Z M-54 21 C-53.01 23.31 -52.02 25.62 -51 28 C-50.01 27.67 -49.02 27.34 -48 27 C-48.70339566 24.49034386 -48.70339566 24.49034386 -50 22 C-52.04105639 21.11306697 -52.04105639 21.11306697 -54 21 Z M-47 29 C-47.66 31.64 -48.32 34.28 -49 37 C-46.9837767 36.28436734 -46.9837767 36.28436734 -45 35 C-44.19471111 32.94999129 -44.19471111 32.94999129 -44 31 C-44.99 30.34 -45.98 29.68 -47 29 Z M-149 36 C-145.33215354 40.81787293 -145.33215354 40.81787293 -141 45 C-138.78141747 44.86358623 -138.78141747 44.86358623 -137 44 C-137.66 44 -138.32 44 -139 44 C-139 43.01 -139 42.02 -139 41 C-136.36 41.33 -133.72 41.66 -131 42 C-131 40.68 -131 39.36 -131 38 C-130.34 37.67 -129.68 37.34 -129 37 C-129.68964844 37.01160156 -130.37929687 37.02320313 -131.08984375 37.03515625 C-137.15772652 37.09342124 -142.98357396 36.78903948 -149 36 Z M211 50 C211.66 50.66 212.32 51.32 213 52 C213 51.34 213 50.68 213 50 C212.34 50 211.68 50 211 50 Z M-88.375 112.4375 C-89.24898438 113.09621094 -90.12296875 113.75492187 -91.0234375 114.43359375 C-92.00183594 115.20896484 -92.00183594 115.20896484 -93 116 C-91.86268364 121.80224109 -91.00352095 125.20850977 -86.375 129.0625 C-83.79390968 131.46724253 -83.06254768 132.57339272 -82.54296875 136.1171875 C-82.56055633 139.10707603 -82.69242173 142.02674339 -83 145 C-77.17345997 148.8997615 -77.17345997 148.8997615 -70.4375 149.8125 C-69.633125 149.544375 -68.82875 149.27625 -68 149 C-67.62447835 142.68731397 -67.62447835 142.68731397 -70 137 C-70.66 137 -71.32 137 -72 137 C-72.13535156 136.27554688 -72.27070312 135.55109375 -72.41015625 134.8046875 C-73.97987562 127.75504961 -75.8960225 123.96340457 -82 120 C-81.62890625 118.078125 -81.62890625 118.078125 -81 116 C-78.9375 114.75 -78.9375 114.75 -77 114 C-77 112.68 -77 111.36 -77 110 C-82.15379795 108.61708941 -84.18124415 109.20717454 -88.375 112.4375 Z M113 288 C113 288.66 113 289.32 113 290 C113.99 289.67 114.98 289.34 116 289 C115.01 288.67 114.02 288.34 113 288 Z " fill="currentColor" transform="translate(175,37)"/>
<path d="M0 0 C0.28875 1.093125 0.5775 2.18625 0.875 3.3125 C1.81893204 7.04013845 1.81893204 7.04013845 4 10 C4.433125 9.34 4.86625 8.68 5.3125 8 C5.869375 7.34 6.42625 6.68 7 6 C7.99 6 8.98 6 10 6 C10 5.34 10 4.68 10 4 C12 3.25 12 3.25 15 3 C16.8488976 3.87402432 18.69194366 4.76608731 20.48046875 5.7578125 C24.75016162 7.86287038 29.30522835 9.19470261 33.828125 10.65625 C37.09532272 12.04038302 38.78657508 13.25956915 41 16 C41.495 17.485 41.495 17.485 42 19 C45.00007271 20.70855022 45.00007271 20.70855022 48 22 C48 22.99 48 23.98 48 25 C47.34 25 46.68 25 46 25 C46 25.99 46 26.98 46 28 C46.58265625 28.26039063 47.1653125 28.52078125 47.765625 28.7890625 C50.14656439 30.07943175 51.8178497 31.48413496 53.75 33.375 C54.36359375 33.96023438 54.9771875 34.54546875 55.609375 35.1484375 C57 37 57 37 57 41 C52.44444252 40.63335554 48.41601064 40.29981129 44.953125 37.12109375 C43.81169089 35.70945289 42.71244147 34.26215972 41.66796875 32.77734375 C39.53809291 30.50780392 38.06116797 30.24154143 35 30 C32.48916886 31.25541557 32.12874554 32.50063488 31 35 C29.54257537 35.08096803 28.08387193 35.13917774 26.625 35.1875 C25.81289063 35.22230469 25.00078125 35.25710938 24.1640625 35.29296875 C23.44992187 35.19628906 22.73578125 35.09960938 22 35 C21.34 34.01 20.68 33.02 20 32 C17.79274927 31.63637182 17.79274927 31.63637182 15.375 31.8125 C14.14910156 31.85310547 14.14910156 31.85310547 12.8984375 31.89453125 C11.95871094 31.94673828 11.95871094 31.94673828 11 32 C11.875 28.125 11.875 28.125 13 27 C13.38990238 23.27857011 13.38990238 23.27857011 12 20 C7.50684933 16.93800103 2.52263741 14 -3 14 C-3.66 14 -4.32 14 -5 14 C-7.74375671 11.04518508 -8 10.22528092 -8 6 C-10.41666771 3.24958334 -10.41666771 3.24958334 -13 1 C-8.31506124 -1.48887372 -5.0555786 -0.85687773 0 0 Z " fill="currentColor" transform="translate(402,336)"/>
<path d="M0 0 C3.15473719 0.35052635 4.8233534 0.86519076 7.375 2.8125 C9 5 9 5 8.875 7.0625 C8 9 8 9 6 12 C6.31925253 15.83103042 6.84453702 17.76680553 9 21 C8.75 23.125 8.75 23.125 8 25 C7.01 25.495 7.01 25.495 6 26 C4.98308736 27.99145391 3.98357352 29.99187074 3 32 C2.34 32.66 1.68 33.32 1 34 C0.566875 35.7015625 0.566875 35.7015625 0.125 37.4375 C-1 41 -1 41 -2.8125 43.0625 C-5 44 -5 44 -7.375 43.1875 C-8.24125 42.795625 -9.1075 42.40375 -10 42 C-10.94875 42.020625 -11.8975 42.04125 -12.875 42.0625 C-16.91448915 41.98171022 -19.37511198 40.73994625 -23 39 C-23 37.02 -23 35.04 -23 33 C-23.99 32.67 -24.98 32.34 -26 32 C-26.22151549 30.20991533 -26.42682213 28.41781838 -26.625 26.625 C-26.74101562 25.62726563 -26.85703125 24.62953125 -26.9765625 23.6015625 C-26.98429687 22.74304688 -26.99203125 21.88453125 -27 21 C-26.34 20.34 -25.68 19.68 -25 19 C-21.875 19.375 -21.875 19.375 -19 20 C-18.95875 19.4225 -18.9175 18.845 -18.875 18.25 C-17.57509891 14.90739721 -14.94484525 13.94359787 -12 12 C-11.484375 11.13375 -10.96875 10.2675 -10.4375 9.375 C-8.63244863 6.39274122 -7.17774609 6.24009603 -4 5 C-1.70422757 2.48593689 -1.70422757 2.48593689 0 0 Z " fill="currentColor" transform="translate(339,306)"/>
<path d="M0 0 C1.66666667 1.66666667 3.33333333 3.33333333 5 5 C5.52722656 5.41765625 6.05445313 5.8353125 6.59765625 6.265625 C8.66186991 8.81858006 8.72229072 11.21216474 9.125 14.4375 C9.65419518 18.88290956 9.65419518 18.88290956 10.6796875 23.22265625 C11 25 11 25 9 28 C6.70891274 28.68390664 4.45438684 29.00710854 2.09375 29.375 C-0.37381064 29.86887498 -0.37381064 29.86887498 -2 33 C-3.32 32.34 -4.64 31.68 -6 31 C-6.495 32.485 -6.495 32.485 -7 34 C-7.99 34 -8.98 34 -10 34 C-10 34.66 -10 35.32 -10 36 C-10.99 36 -11.98 36 -13 36 C-13.66 37.98 -14.32 39.96 -15 42 C-16.8125 41.8125 -16.8125 41.8125 -19 41 C-20.94245385 38.50255933 -21.89178574 36.61836722 -22.4375 33.5 C-21.8383966 30.07655202 -20.40273103 28.46947356 -18 26 C-14.6312863 23.67674917 -11.00518216 23.4621364 -7 23 C-6.67 20.69 -6.34 18.38 -6 16 C-4.68 16.33 -3.36 16.66 -2 17 C-0.48483779 13.96967558 -0.82971947 11.34885038 -1 8 C-1.8974827 5.16621868 -1.8974827 5.16621868 -3 3 C-2.01 2.01 -1.02 1.02 0 0 Z M-15 31 C-15 34 -15 34 -15 34 Z " fill="currentColor" transform="translate(387,167)"/>
<path d="M0 0 C3.0873102 0.32192465 4.60672034 0.59652735 6.80859375 2.85546875 C7.34613281 3.62503906 7.88367188 4.39460938 8.4375 5.1875 C10.61281942 8.18333465 12.75607646 10.8825587 15.4375 13.4375 C16.283125 14.283125 17.12875 15.12875 18 16 C18 16.66 18 17.32 18 18 C17.34 18.33 16.68 18.66 16 19 C16.66 19.886875 17.32 20.77375 18 21.6875 C20 25 20 25 19.75 27.5625 C19.72944037 30.06576038 19.72944037 30.06576038 21.51953125 31.3515625 C24.85825241 33.53481802 27.99023275 35.13015586 31.875 36.0625 C35 37 35 37 36.4375 39.125 C36.623125 39.74375 36.80875 40.3625 37 41 C34.525 41.495 34.525 41.495 32 42 C32 42.99 32 43.98 32 45 C28.535 44.505 28.535 44.505 25 44 C24.67 44.99 24.34 45.98 24 47 C22.125 46.6875 22.125 46.6875 20 46 C18 43 18 43 18 39 C18.66 39 19.32 39 20 39 C19.71125 38.278125 19.4225 37.55625 19.125 36.8125 C18.46227615 35.15569037 17.8192183 33.49035913 17.22265625 31.80859375 C15.59082212 28.06006742 13.49006589 24.70325826 11.3125 21.25 C10.87059326 20.54133789 10.42868652 19.83267578 9.97338867 19.10253906 C6.98796776 14.3781902 3.79443846 9.98695086 0.08203125 5.796875 C-1 4 -1 4 -0.67578125 1.765625 C-0.45277344 1.18296875 -0.22976563 0.6003125 0 0 Z " fill="currentColor" transform="translate(361,121)"/>
<path d="M0 0 C0.495 1.485 0.495 1.485 1 3 C0.31035156 3.24234375 -0.37929687 3.4846875 -1.08984375 3.734375 C-4.06998415 4.79725086 -7.03682452 5.89072835 -10 7 C-10.80953125 7.30035156 -11.6190625 7.60070313 -12.453125 7.91015625 C-17.51174502 9.95306049 -21.20482485 12.57854583 -25.17578125 16.31640625 C-27.0281284 18.02596004 -28.96177188 19.51969746 -31 21 C-30.41196203 24.02419525 -29.77321882 27.01758453 -29 30 C-36.17264669 30.60785141 -36.17264669 30.60785141 -40.0625 27.75 C-42 25 -42 25 -41.94140625 23.203125 C-40.54664939 19.93904671 -38.26297485 17.56580277 -35.875 15 C-35.41351563 14.47921875 -34.95203125 13.9584375 -34.4765625 13.421875 C-28.79733385 7.24337351 -22.35817168 4.48890986 -14.4375 2.25 C-13.70853516 2.02957031 -12.97957031 1.80914063 -12.22851562 1.58203125 C-8.03968189 0.36798583 -4.40659741 -0.25061218 0 0 Z " fill="currentColor" transform="translate(110,28)"/>
<path d="M0 0 C0.99 0.33 1.98 0.66 3 1 C1.84826645 3.46800047 0.95216435 5.04783565 -1 7 C-4.2578125 7.1953125 -4.2578125 7.1953125 -8.125 7.125 C-10.04699219 7.09792969 -10.04699219 7.09792969 -12.0078125 7.0703125 C-13.48894531 7.03550781 -13.48894531 7.03550781 -15 7 C-14.67 7.99 -14.34 8.98 -14 10 C-10.7 9.67 -7.4 9.34 -4 9 C-5 13 -5 13 -8 15 C-7.49396008 17.16874252 -7.00016187 18.99967627 -6 21 C-5.86584528 23.6723621 -5.95681459 26.32250488 -6 29 C-6.99 29 -7.98 29 -9 29 C-10.65 26.03 -12.3 23.06 -14 20 C-14.33 22.97 -14.66 25.94 -15 29 C-16.32 29.33 -17.64 29.66 -19 30 C-18.979375 28.865625 -18.95875 27.73125 -18.9375 26.5625 C-18.58422523 23.18424326 -18.58422523 23.18424326 -20 22 C-20.47202471 15.50966026 -19.28846374 10.08280777 -17 4 C-14.60043729 1.60043729 -8.4714488 2.53424018 -5.22265625 2.37890625 C-1.91423026 2.32736325 -1.91423026 2.32736325 0 0 Z " fill="currentColor" transform="translate(368,326)"/>
<path d="M0 0 C2.6875 0.25 2.6875 0.25 4.52734375 1.7578125 C7.23387402 3.62742292 8.68687701 3.5328874 11.9375 3.375 C16.66517472 3.23539081 21.01516963 3.54474259 25.6875 4.25 C25.3575 5.24 25.0275 6.23 24.6875 7.25 C27.859238 8.835869 31.32263822 8.62866445 34.8125 8.8125 C35.94365234 8.87727539 35.94365234 8.87727539 37.09765625 8.94335938 C38.96071888 9.0494832 40.82408524 9.15025001 42.6875 9.25 C42.6875 10.57 42.6875 11.89 42.6875 13.25 C33.04905129 16.30311064 20.66994965 12.59501222 11 10.875 C9.73994141 10.66617187 8.47988281 10.45734375 7.18164062 10.2421875 C5.98345703 10.03078125 4.78527344 9.819375 3.55078125 9.6015625 C1.93103394 9.32046631 1.93103394 9.32046631 0.27856445 9.03369141 C-2.3125 8.25 -2.3125 8.25 -4.3125 5.25 C-3.81171484 1.8446609 -3.58475496 0.38754108 0 0 Z " fill="currentColor" transform="translate(304.3125,355.75)"/>
<path d="M0 0 C1.98 0 3.96 0 6 0 C7.59425594 3.48743486 8.40452876 6.15697679 8 10 C7.01 11.485 7.01 11.485 6 13 C6.66 13.33 7.32 13.66 8 14 C8 14.99 8 15.98 8 17 C8.94875 17.103125 9.8975 17.20625 10.875 17.3125 C14 18 14 18 16 21 C16 21.99 16 22.98 16 24 C12.85262818 23.30058404 9.97411124 22.23921302 7 21 C6.67 22.32 6.34 23.64 6 25 C2.41862813 23.58709591 1.15566687 22.2034303 -0.375 18.6875 C-2.80091211 12.26541485 -1.513659 6.52509759 0 0 Z " fill="currentColor" transform="translate(348,259)"/>
<path d="M0 0 C1 4.75 1 4.75 1 7 C2.65 6.67 4.3 6.34 6 6 C7.125 10.75 7.125 10.75 6 13 C-1.96233497 15.5246428 -9.07982035 10.58366446 -16 7 C-15.34 6.01 -14.68 5.02 -14 4 C-13.34 4 -12.68 4 -12 4 C-12 3.01 -12 2.02 -12 1 C-7.53763531 -0.80619523 -4.68965706 -1.11658501 0 0 Z " fill="currentColor" transform="translate(167,15)"/>
<path d="M0 0 C1.953125 0.7109375 1.953125 0.7109375 4 2 C4.609375 4.1640625 4.609375 4.1640625 4.75 6.625 C4.80671875 7.44226563 4.8634375 8.25953125 4.921875 9.1015625 C4.94765625 9.72804688 4.9734375 10.35453125 5 11 C4.01 11 3.02 11 2 11 C2 12.65 2 14.3 2 16 C0.35 15.67 -1.3 15.34 -3 15 C-3.66 13.02 -4.32 11.04 -5 9 C-6.32 9 -7.64 9 -9 9 C-9 9.66 -9 10.32 -9 11 C-9.99 11 -10.98 11 -12 11 C-11.6875 8.625 -11.6875 8.625 -11 6 C-8 4 -8 4 -4.9375 3 C-1.91944266 2.21378109 -1.91944266 2.21378109 0 0 Z " fill="currentColor" transform="translate(369,295)"/>
<path d="M0 0 C0 0.66 0 1.32 0 2 C1.98 1.67 3.96 1.34 6 1 C6 1.99 6 2.98 6 4 C4.35546875 5.28125 4.35546875 5.28125 2.1875 6.5 C-0.03220447 7.76147139 -1.78531758 8.76479239 -3.51171875 10.65625 C-5 12 -5 12 -9 12 C-8.8125 10.25 -8.8125 10.25 -8 8 C-6.35 6.68 -4.7 5.36 -3 4 C-8.61 4 -14.22 4 -20 4 C-20 3.01 -20 2.02 -20 1 C-13.28837062 0.11978631 -6.76594019 -0.11381955 0 0 Z " fill="currentColor" transform="translate(369,365)"/>
<path d="M0 0 C3.51799762 1.95444312 6.39208869 3.90914215 9 7 C9 7.99 9 8.98 9 10 C8.13375 10.12375 8.13375 10.12375 7.25 10.25 C4.36595852 11.21134716 3.06318353 12.80370785 1 15 C-2 17 -2 17 -4.5 16.6875 C-6.34904262 16.17901328 -8.18072387 15.60642538 -10 15 C-10 14.01 -10 13.02 -10 12 C-8.35 12 -6.7 12 -5 12 C-5 11.34 -5 10.68 -5 10 C-3.68 10.33 -2.36 10.66 -1 11 C-0.71125 10.360625 -0.4225 9.72125 -0.125 9.0625 C1 7 1 7 3 6 C1.68 4.35 0.36 2.7 -1 1 C-0.67 0.67 -0.34 0.34 0 0 Z " fill="currentColor" transform="translate(462,343)"/>
<path d="M0 0 C3.12349621 0.59811629 4.62316769 1.42619325 6.9375 3.5625 C6.6075 4.5525 6.2775 5.5425 5.9375 6.5625 C1.6475 7.2225 -2.6425 7.8825 -7.0625 8.5625 C-7.3925 7.9025 -7.7225 7.2425 -8.0625 6.5625 C-3.92467009 0.72085777 -3.92467009 0.72085777 0 0 Z " fill="currentColor" transform="translate(180.0625,24.4375)"/>
<path d="M0 0 C0.99 0 1.98 0 3 0 C5.6653235 3.1983882 6.9397248 5.18628475 7.25 9.375 C7.1675 10.24125 7.085 11.1075 7 12 C5.02 12.99 5.02 12.99 3 14 C2.01 13.34 1.02 12.68 0 12 C-0.29296875 9.1796875 -0.29296875 9.1796875 -0.1875 5.875 C-0.16042969 4.77929688 -0.13335937 3.68359375 -0.10546875 2.5546875 C-0.07066406 1.71164062 -0.03585938 0.86859375 0 0 Z " fill="currentColor" transform="translate(210,296)"/>
<path d="M0 0 C0.99 0 1.98 0 3 0 C4.51708428 9.41002278 4.51708428 9.41002278 2 14 C1.01 14 0.02 14 -1 14 C-2.97614897 11.21014263 -3.10310462 9.16665323 -2.75 5.875 C-2 2 -2 2 0 0 Z " fill="currentColor" transform="translate(345,232)"/>
<path d="M0 0 C3.16115776 1.36983503 3.9927092 1.9890638 6 5 C6.825 5.4125 7.65 5.825 8.5 6.25 C11.92496486 8.64747541 12.17239673 11.01245699 13 15 C8.25 14.125 8.25 14.125 6 13 C6.33 11.68 6.66 10.36 7 9 C6.030625 8.525625 5.06125 8.05125 4.0625 7.5625 C1 6 1 6 0 5 C-0.04063832 3.33382885 -0.042721 1.66611905 0 0 Z " fill="currentColor" transform="translate(474,354)"/>
<path d="M0 0 C2.475 0.495 2.475 0.495 5 1 C5 1.66 5 2.32 5 3 C5.99 3.33 6.98 3.66 8 4 C7.125 8.75 7.125 8.75 6 11 C4.68 10.67 3.36 10.34 2 10 C2 8.68 2 7.36 2 6 C1.34 6 0.68 6 0 6 C0 4.02 0 2.04 0 0 Z " fill="currentColor" transform="translate(356,286)"/>
<path d="M0 0 C2.475 0.99 2.475 0.99 5 2 C5 3.98 5 5.96 5 8 C4.34 8 3.68 8 3 8 C3 9.32 3 10.64 3 12 C1.68 11.67 0.36 11.34 -1 11 C-0.67 7.37 -0.34 3.74 0 0 Z " fill="currentColor" transform="translate(378,325)"/>
<path d="M0 0 C0.99 0 1.98 0 3 0 C3 1.65 3 3.3 3 5 C2.01 5.33 1.02 5.66 0 6 C-0.309375 6.66 -0.61875 7.32 -0.9375 8 C-2 10 -2 10 -4.125 10.75 C-5.053125 10.87375 -5.053125 10.87375 -6 11 C-5.39005934 7.93674247 -4.42271989 5.79949366 -2.625 3.25 C-2.20476562 2.63640625 -1.78453125 2.0228125 -1.3515625 1.390625 C-0.90554688 0.93171875 -0.45953125 0.4728125 0 0 Z " fill="currentColor" transform="translate(346,289)"/>
<path d="M0 0 C0.99 0 1.98 0 3 0 C4.4606285 2.64738916 5 3.89448334 5 7 C2.03 7 -0.94 7 -4 7 C-4 5.68 -4 4.36 -4 3 C-2.68 3 -1.36 3 0 3 C0 2.01 0 1.02 0 0 Z " fill="currentColor" transform="translate(494,367)"/>
<path d="M0 0 C2.64 0 5.28 0 8 0 C8.66 1.65 9.32 3.3 10 5 C6.31733897 4.40049704 2.65456815 3.75241109 -1 3 C-0.67 2.01 -0.34 1.02 0 0 Z " fill="currentColor" transform="translate(380,344)"/>
<path d="M0 0 C1.65 0 3.3 0 5 0 C5.25 5.625 5.25 5.625 3 9 C2.34 9 1.68 9 1 9 C0.45627049 5.94152152 0 3.11227195 0 0 Z " fill="currentColor" transform="translate(364,283)"/>
<path d="M0 0 C2.31 0.33 4.62 0.66 7 1 C7 2.32 7 3.64 7 5 C2.25 4.125 2.25 4.125 0 3 C0 2.01 0 1.02 0 0 Z " fill="currentColor" transform="translate(346,370)"/>
<path d="M0 0 C2.4375 0.75 2.4375 0.75 5 2 C5.8125 4.125 5.8125 4.125 6 6 C3.13275314 5.42655063 2.1385485 5.1385485 0 3 C0 2.01 0 1.02 0 0 Z " fill="currentColor" transform="translate(487,363)"/>
<path d="M0 0 C1.32 0 2.64 0 4 0 C4 1.32 4 2.64 4 4 C2.68 4 1.36 4 0 4 C-0.33 3.01 -0.66 2.02 -1 1 C-0.67 0.67 -0.34 0.34 0 0 Z " fill="currentColor" transform="translate(373,345)"/>
<path d="M0 0 C0.66 0.33 1.32 0.66 2 1 C1.67 2.32 1.34 3.64 1 5 C0.01 5 -0.98 5 -2 5 C-1.125 1.125 -1.125 1.125 0 0 Z " fill="currentColor" transform="translate(402,355)"/>
<path d="M0 0 C0.99 0.33 1.98 0.66 3 1 C2.01 2.485 2.01 2.485 1 4 C0.01 4 -0.98 4 -2 4 C-1.34 2.68 -0.68 1.36 0 0 Z " fill="currentColor" transform="translate(390,362)"/>
<path d="M0 0 C1.32 0 2.64 0 4 0 C4 0.99 4 1.98 4 3 C2.68 2.34 1.36 1.68 0 1 C0 0.67 0 0.34 0 0 Z " fill="currentColor" transform="translate(496,375)"/>
</svg>
