<svg xmlns="http://www.w3.org/2000/svg" viewBox="0 0 646 488" fill="currentColor">
<g transform="translate(0,488) scale(0.1,-0.1)" fill="currentColor" stroke="none">
<path d="M4795 4637 c-45 -11 -50 -15 -57 -47 -7 -31 -4 -38 21 -60 27 -23 28
-27 15 -45 -8 -10 -12 -27 -8 -37 4 -13 0 -18 -15 -18 -14 0 -21 6 -21 19 0
10 -7 24 -14 31 -13 10 -17 4 -29 -37 -11 -39 -19 -49 -39 -51 -19 -2 -28 -13
-42 -52 -13 -37 -22 -48 -37 -47 -13 1 -19 9 -19 23 0 13 -7 30 -17 39 -15 15
-17 15 -25 1 -5 -9 -6 -21 -3 -26 3 -6 1 -10 -5 -10 -8 0 -10 -9 -5 -27 5 -22
4 -25 -8 -14 -12 9 -20 4 -46 -31 -21 -28 -31 -51 -28 -66 3 -14 -2 -27 -14
-36 -16 -11 -17 -17 -7 -44 10 -27 10 -35 -3 -47 -24 -24 -80 -29 -122 -11
-47 19 -49 49 -7 75 l31 18 -23 15 c-42 27 -97 41 -113 28 -15 -13 -4 -60 20
-80 8 -7 11 -24 8 -50 -5 -36 -4 -39 23 -42 26 -3 30 -7 34 -48 3 -25 9 -51
13 -57 6 -9 0 -13 -21 -13 -22 0 -29 4 -28 18 1 17 -9 18 -59 7 -19 -4 -86
-115 -85 -142 0 -7 9 -17 21 -23 19 -11 59 -66 59 -82 0 -14 -84 -8 -114 7
-15 8 -46 15 -67 15 -32 0 -39 -4 -39 -19 0 -24 36 -51 67 -51 28 0 37 -14 29
-46 -8 -32 -42 -32 -89 0 -19 13 -38 22 -40 19 -3 -3 -14 -2 -24 1 -21 7 -39
45 -57 121 -12 48 -15 51 -78 84 -49 25 -67 40 -71 58 -4 19 -1 23 12 17 65
-28 136 -46 192 -48 36 -2 70 -6 75 -9 17 -10 90 30 114 62 12 18 24 49 27 71
4 32 2 41 -16 52 -11 7 -21 18 -21 25 0 6 -15 15 -32 19 -18 3 -69 23 -113 42
-67 30 -96 36 -177 41 -81 5 -100 9 -120 28 -18 17 -27 20 -36 11 -8 -8 -15
-8 -27 2 -12 10 -15 10 -15 -4 0 -23 -31 -20 -37 4 -3 11 -11 20 -18 20 -12 0
-13 39 -1 58 8 13 -20 35 -34 27 -6 -4 -18 1 -25 11 -12 16 -17 17 -34 7 -28
-18 -31 -17 -31 12 0 44 -32 25 -45 -27 -9 -35 -21 -28 -29 17 -4 19 -11 35
-17 35 -22 0 -48 -21 -43 -34 4 -11 0 -13 -15 -9 -17 4 -22 0 -27 -26 -5 -25
-10 -30 -25 -26 -13 4 -19 1 -19 -9 0 -11 -10 -16 -34 -16 -35 0 -46 -13 -46
-51 0 -14 -7 -19 -30 -19 -21 0 -30 -5 -30 -16 0 -20 -22 -42 -36 -37 -6 2
-14 -4 -18 -14 -18 -49 -46 -88 -62 -88 -13 0 -21 -10 -25 -30 -4 -17 -7 -22
-8 -12 0 9 -8 17 -17 17 -10 0 -14 -6 -10 -15 4 -10 -1 -15 -14 -15 -22 0 -27
-15 -9 -26 8 -5 7 -10 -4 -16 -9 -5 -14 -15 -11 -23 4 -9 -8 -21 -34 -34 -42
-22 -80 -76 -58 -85 7 -3 7 -5 -1 -5 -7 -1 -13 -7 -13 -13 0 -7 -14 -28 -31
-46 -19 -20 -28 -39 -25 -48 3 -9 -3 -28 -14 -44 -11 -15 -20 -33 -20 -39 0
-6 -17 -11 -37 -11 -31 -1 -41 -6 -58 -32 -11 -18 -42 -45 -70 -61 -27 -16
-52 -33 -55 -37 -3 -5 -18 -12 -33 -15 -15 -4 -27 -13 -27 -21 0 -8 -6 -11
-16 -7 -9 3 -27 -6 -45 -23 -16 -15 -29 -23 -29 -17 0 15 -53 9 -58 -6 -2 -6
1 -11 7 -11 6 0 11 -4 11 -10 0 -5 -7 -10 -15 -10 -23 0 -41 -46 -25 -65 10
-12 10 -15 0 -15 -8 0 -10 -8 -6 -25 4 -14 2 -25 -3 -25 -17 0 -8 -51 11 -61
16 -8 17 -13 7 -25 -6 -8 -9 -17 -5 -21 3 -4 -7 -12 -24 -19 -23 -10 -30 -19
-30 -40 0 -26 1 -26 18 -11 10 10 22 17 25 17 12 0 7 -27 -7 -39 -26 -21 -25
-50 1 -81 14 -17 21 -30 16 -30 -4 0 3 -9 15 -18 19 -15 34 -17 69 -12 25 4
48 11 52 16 22 31 76 65 96 60 27 -7 40 7 49 51 9 39 36 66 36 35 0 -11 7 -25
15 -32 11 -9 13 -16 5 -24 -15 -15 -12 -102 4 -118 9 -10 13 -35 11 -81 -1
-52 2 -70 13 -76 11 -6 17 -32 20 -90 5 -90 19 -111 74 -111 23 0 28 5 28 23
0 13 12 34 26 46 21 18 33 21 65 16 32 -6 40 -4 45 12 3 10 12 34 21 53 16 37
22 59 27 100 2 14 8 46 13 72 7 34 7 49 -1 52 -6 2 -1 5 11 5 12 1 29 10 37
22 8 12 19 18 25 15 10 -6 35 28 36 50 0 6 8 18 18 28 20 21 23 56 3 56 -7 0
-19 14 -26 31 -8 19 -18 28 -27 25 -9 -4 -19 5 -27 25 -13 30 -11 47 15 148 6
27 5 37 -9 47 -14 10 -11 14 27 25 32 10 46 20 53 40 5 16 21 32 36 37 42 14
102 122 102 182 0 34 5 52 20 65 11 10 20 29 20 43 0 16 4 22 14 19 7 -3 18
-1 23 4 12 12 94 -16 111 -38 18 -25 15 -66 -7 -80 -11 -7 -39 -45 -62 -85
-51 -89 -67 -108 -90 -108 -23 0 -34 -55 -24 -118 5 -26 7 -60 6 -77 -7 -115
-9 -108 27 -116 19 -4 51 -23 71 -43 41 -40 53 -43 71 -21 7 8 16 13 20 10 4
-3 21 2 36 10 16 8 34 15 40 15 6 0 17 7 24 15 7 9 19 14 26 11 7 -2 19 3 28
13 10 11 26 16 40 14 13 -3 27 0 30 6 4 6 20 11 36 11 22 0 29 -5 32 -22 3
-20 11 -24 52 -28 64 -6 74 -30 14 -31 -23 -1 -46 -1 -50 0 -5 0 -8 -5 -8 -11
0 -7 -12 -24 -26 -38 -24 -23 -33 -24 -135 -25 -66 0 -113 -4 -117 -11 -4 -6
-15 -13 -24 -17 -19 -7 -24 -32 -9 -42 5 -3 7 -20 4 -39 -4 -25 -1 -35 12 -40
9 -3 21 -4 26 0 17 10 4 -135 -14 -153 -3 -2 -23 13 -45 35 -22 22 -50 43 -63
47 -33 11 -62 -28 -83 -111 -23 -90 -14 -160 23 -192 24 -22 19 -24 -23 -6 -8
3 -16 -3 -19 -15 -6 -25 -37 -28 -37 -4 0 14 -4 12 -25 -7 -14 -13 -24 -28
-23 -34 1 -6 -1 -21 -5 -32 -6 -17 -16 -22 -42 -22 -28 0 -38 6 -54 34 -18 30
-24 34 -48 28 -16 -4 -36 -11 -45 -15 -9 -5 -24 -9 -34 -9 -9 0 -32 -11 -50
-25 -18 -14 -42 -25 -52 -25 -11 0 -32 -14 -47 -32 -15 -18 -30 -27 -33 -22
-4 6 -15 13 -24 17 -10 3 -18 16 -18 27 0 33 -40 45 -106 31 -82 -16 -93 -15
-87 9 4 13 0 20 -9 20 -35 0 -67 26 -74 60 -5 19 -8 40 -7 47 1 18 77 112 91
113 17 0 15 37 -2 47 -8 4 -14 17 -13 28 2 17 -3 19 -28 17 -16 -2 -32 -8 -33
-13 -2 -5 -8 -6 -13 -3 -6 3 -16 0 -24 -6 -12 -10 -18 -10 -30 0 -18 15 -21 8
-29 -63 -4 -33 -1 -57 9 -77 18 -35 19 -80 3 -115 -9 -21 -9 -31 0 -46 16 -25
15 -29 -8 -29 -16 0 -20 -7 -20 -32 -1 -31 -1 -32 -15 -13 -28 40 -36 45 -65
45 -25 0 -30 -4 -30 -25 0 -14 -4 -25 -10 -25 -5 0 -10 9 -10 21 0 16 -4 19
-17 14 -10 -4 -33 -8 -51 -10 -42 -4 -64 -22 -56 -47 6 -21 -22 -72 -36 -63
-4 3 -3 19 3 35 10 25 9 33 -3 40 -19 11 -30 4 -30 -21 0 -11 -14 -34 -30 -51
-17 -16 -27 -35 -23 -41 4 -7 0 -8 -11 -4 -14 6 -17 2 -16 -21 1 -15 2 -33 1
-39 -2 -20 -29 -15 -51 7 -12 12 -26 18 -33 13 -7 -4 -32 -10 -57 -13 -42 -5
-47 -8 -69 -51 -25 -50 -53 -69 -101 -69 -34 0 -38 -7 -12 -26 16 -12 15 -13
-7 -14 -13 0 -49 8 -78 17 -47 16 -54 21 -50 40 4 24 -13 36 -39 26 -12 -4
-15 -18 -14 -52 2 -25 2 -52 1 -58 -1 -15 -28 -17 -33 -3 -2 6 -20 11 -41 12
-20 1 -37 5 -37 10 0 24 -29 34 -92 33 -37 0 -70 -4 -74 -8 -4 -4 0 -7 9 -7
22 0 22 -16 0 -29 -14 -8 -15 -12 -4 -25 7 -9 21 -16 31 -16 10 0 29 -13 42
-29 14 -16 34 -32 46 -35 13 -4 22 -16 22 -27 0 -10 5 -19 10 -19 6 0 10 -18
10 -39 0 -49 15 -91 33 -91 11 0 14 -18 13 -77 0 -63 -2 -73 -10 -50 -15 40
-25 33 -32 -24 -4 -28 -13 -53 -19 -56 -7 -2 -16 -15 -19 -28 -3 -13 -18 -37
-32 -54 -21 -26 -33 -31 -67 -31 -25 0 -56 9 -77 21 -19 12 -78 36 -130 54
-131 45 -191 72 -220 100 -27 25 -67 28 -94 6 -11 -9 -20 -10 -35 -1 -26 14
-78 -15 -61 -35 6 -8 6 -16 -3 -24 -9 -10 -8 -11 7 -5 16 6 17 4 11 -17 -4
-13 -13 -31 -20 -39 -6 -8 -17 -41 -24 -72 -12 -56 -70 -158 -106 -188 -19
-15 -75 -98 -75 -111 0 -4 9 -9 20 -12 28 -7 25 -41 -10 -107 -37 -69 -38 -88
-3 -96 15 -4 38 -13 52 -20 14 -8 40 -14 58 -14 36 0 97 -45 89 -66 -3 -7 0
-15 7 -18 8 -3 6 -9 -6 -20 -18 -14 -18 -16 9 -50 l28 -35 32 19 c42 27 123
26 210 -1 91 -28 128 -28 151 -1 10 12 46 30 80 41 59 18 163 83 163 101 0 5
-4 12 -10 15 -19 12 -10 63 16 95 15 17 47 45 73 62 25 18 51 38 56 45 6 7 51
19 100 26 135 20 155 36 155 126 0 43 4 53 25 67 37 24 98 29 117 10 9 -9 23
-13 32 -10 8 3 21 1 28 -5 33 -28 91 -71 96 -71 3 0 16 10 29 22 13 12 35 23
48 23 13 1 38 13 57 27 46 35 98 60 111 55 7 -2 14 -4 17 -4 3 0 15 -5 27 -12
15 -7 23 -8 23 -1 0 5 4 10 9 10 4 0 16 -29 26 -65 9 -36 34 -92 55 -123 54
-84 156 -190 216 -223 62 -35 216 -187 239 -236 17 -35 17 -36 -9 -60 -27 -25
-37 -85 -15 -99 13 -8 139 119 139 140 0 8 -12 28 -26 45 -26 31 -26 32 -9 67
12 26 21 34 33 29 9 -3 29 -9 45 -12 15 -3 27 -11 27 -19 0 -20 29 -44 45 -38
23 9 18 49 -12 85 -26 30 -171 109 -202 109 -12 0 -11 3 2 18 24 26 22 30 -20
38 -92 16 -154 81 -178 186 -9 42 -15 50 -55 70 -58 30 -68 48 -51 93 10 28
10 39 1 50 -9 11 -9 17 2 27 18 18 86 41 98 33 5 -3 19 -1 30 5 16 8 20 8 20
-4 0 -8 -7 -19 -16 -24 -13 -7 -14 -15 -4 -52 l11 -43 30 34 c28 33 29 33 44
15 8 -11 15 -34 15 -51 0 -19 7 -36 20 -45 13 -9 16 -18 9 -26 -12 -14 55 -67
203 -159 59 -36 114 -75 121 -85 7 -11 26 -24 41 -30 20 -7 26 -15 22 -28 -4
-10 -8 -55 -11 -100 -5 -80 -4 -83 19 -92 14 -5 32 -23 41 -40 8 -16 22 -30
30 -30 8 0 15 -9 15 -20 0 -17 5 -19 25 -14 14 3 25 2 25 -4 0 -5 -9 -12 -20
-15 -22 -6 -24 -14 -11 -35 5 -9 30 -13 74 -13 37 0 69 -4 72 -9 3 -5 11 -7
18 -5 17 6 50 -21 42 -35 -5 -8 -13 -6 -26 6 -15 14 -29 16 -76 10 -32 -4 -62
-11 -67 -16 -5 -5 2 -21 17 -40 19 -22 25 -38 21 -58 -3 -16 1 -35 10 -47 15
-19 16 -19 30 -2 14 18 15 17 31 -12 16 -33 35 -41 35 -16 0 8 5 15 10 15 6 0
10 -4 10 -10 0 -5 14 -10 32 -10 29 0 30 1 16 18 -8 9 -22 31 -30 49 l-16 32
36 3 c19 2 38 9 40 17 3 10 0 12 -11 8 -23 -9 -32 12 -14 30 11 12 19 13 36 4
19 -11 21 -9 21 17 0 35 -23 57 -76 75 -27 10 -39 20 -39 33 -1 10 -4 24 -8
30 -8 14 1 24 25 24 10 0 18 -7 18 -15 0 -16 15 -20 24 -7 3 5 -8 18 -23 30
-32 23 -76 105 -66 122 12 19 33 10 43 -19 11 -30 57 -69 69 -58 3 4 -2 9 -11
13 -9 3 -16 10 -16 16 0 5 10 2 22 -6 25 -18 42 -21 34 -7 -3 5 5 12 19 15 26
7 35 26 11 26 -8 0 -24 9 -37 20 -24 19 -24 19 -3 20 12 0 27 7 34 15 8 10 21
13 37 9 16 -4 28 -2 34 7 6 11 16 10 56 -4 26 -9 59 -17 72 -17 20 0 22 -3 13
-12 -7 -7 -12 -16 -12 -20 0 -19 32 -5 85 39 45 37 68 49 104 53 61 7 64 29 8
55 -24 12 -48 32 -57 50 -19 36 -35 55 -49 55 -16 0 -13 16 4 30 9 7 14 19 11
26 -8 22 9 67 28 70 27 4 27 6 31 91 3 95 3 93 15 93 6 0 10 -8 10 -17 1 -14
6 -12 25 10 30 34 31 51 5 77 -22 22 -27 55 -7 47 7 -3 28 1 46 9 33 14 33 15
16 34 -16 18 -16 20 -2 20 9 0 21 9 27 20 13 24 67 53 86 46 9 -3 14 1 14 11
0 13 3 14 12 5 8 -8 9 -18 0 -36 -6 -13 -8 -27 -5 -30 11 -11 89 -6 102 7 11
10 14 9 18 -1 3 -9 12 -6 31 8 18 15 37 20 62 18 28 -2 37 1 45 20 6 12 16 20
23 17 20 -7 140 63 164 96 12 16 29 29 38 29 9 0 20 3 24 7 3 4 14 8 24 9 9 1
27 6 40 9 30 10 28 -9 -4 -30 -15 -10 -23 -22 -20 -31 4 -10 -3 -14 -24 -14
-43 0 -46 -18 -6 -37 34 -16 47 -33 26 -33 -5 0 -6 -8 -3 -17 5 -12 2 -15 -10
-10 -19 7 -42 -26 -31 -44 3 -6 -4 -21 -16 -34 l-22 -23 54 -26 c30 -14 66
-26 80 -26 15 0 50 -16 79 -36 76 -51 99 -62 149 -69 25 -4 47 -10 50 -14 3
-3 18 -14 33 -24 41 -26 68 -76 56 -100 -16 -28 -6 -31 63 -17 45 8 63 9 66 1
2 -6 11 -11 21 -11 30 0 53 -25 60 -66 7 -39 7 -39 49 -36 23 1 42 -2 42 -8 0
-20 103 -62 152 -62 58 0 89 18 131 79 60 86 53 81 78 56 14 -14 22 -34 23
-61 1 -39 1 -40 41 -45 49 -5 52 -3 35 27 -7 14 -9 32 -5 43 4 10 8 60 9 110
l1 93 -30 10 c-16 6 -42 23 -58 38 -15 15 -63 45 -105 67 -75 40 -78 42 -113
114 -39 78 -73 114 -100 105 -18 -5 -35 38 -23 58 4 6 10 36 13 67 3 31 11 56
17 56 20 0 85 65 82 83 -2 9 -16 23 -31 30 -22 11 -26 16 -17 27 15 18 8 28
-45 65 -38 26 -48 29 -67 19 -19 -10 -25 -8 -50 20 -15 17 -35 31 -43 31 -18
0 -19 23 -4 53 9 16 9 22 0 25 -22 7 -32 54 -25 114 7 64 18 71 54 33 18 -20
26 -22 37 -13 16 13 10 54 -13 79 -13 15 -13 17 6 22 15 4 20 13 20 36 0 19 5
31 13 31 7 0 26 20 41 45 23 35 33 44 50 39 16 -4 26 3 40 26 14 24 23 30 39
26 12 -3 27 0 34 6 10 8 29 6 74 -7 57 -17 60 -17 72 -1 11 15 19 16 52 7 46
-12 52 -10 60 29 4 17 13 30 21 30 8 0 14 5 14 10 0 6 12 10 26 10 29 0 54 21
54 44 0 18 18 20 74 7 44 -11 63 -6 70 17 3 10 26 29 51 44 32 20 45 34 45 50
0 44 -13 51 -79 43 -49 -6 -66 -4 -87 10 -16 10 -35 14 -49 11 -33 -8 -68 7
-89 38 -14 23 -34 92 -52 184 -6 31 -16 28 -62 -18 -31 -31 -47 -40 -74 -40
-45 0 -60 15 -46 46 8 17 19 24 38 24 30 0 44 13 53 49 14 55 -43 81 -98 45
-31 -20 -61 -10 -81 27 -12 24 -13 34 -3 45 9 11 8 24 -6 59 -14 38 -15 48 -4
61 7 9 12 32 10 50 -3 38 -67 144 -86 144 -7 0 -24 29 -39 63 -40 94 -157 305
-226 407 -33 50 -60 96 -60 104 0 7 7 31 17 52 11 27 16 68 16 134 0 65 4 101
13 115 19 26 18 61 -3 113 -15 36 -22 42 -41 39 -14 -3 -32 5 -50 21 -17 17
-36 25 -53 23 -19 -1 -31 5 -43 23 -18 29 -34 30 -111 13z m-580 -987 c4 -6
-5 -10 -19 -10 -14 0 -26 5 -26 10 0 6 9 10 19 10 11 0 23 -4 26 -10z"/>
</g>
</svg>
