<svg xmlns="http://www.w3.org/2000/svg" viewBox="55.8 2 244 295" fill="currentColor">
<g transform="translate(0,312) scale(0.1,-0.1)" fill="currentColor" stroke="none">
<path d="M1530 2951 c-14 -5 -50 -14 -80 -21 -145 -32 -368 -134 -485 -222
-88 -66 -234 -206 -258 -247 l-18 -31 195 0 195 0 75 113 c105 157 267 313
393 378 63 32 52 51 -17 30z"/>
<path d="M1822 2698 l3 -263 273 -3 c223 -2 272 0 272 11 0 29 -129 206 -210
288 -101 101 -284 229 -330 229 -7 0 -9 -83 -8 -262z"/>
<path d="M1675 2924 c-75 -40 -187 -129 -264 -210 -73 -77 -191 -243 -191
-269 0 -14 30 -15 258 -13 l257 3 3 249 c1 137 -1 253 -6 258 -4 4 -30 -4 -57
-18z"/>
<path d="M2015 2941 c3 -6 21 -18 38 -27 129 -65 317 -258 417 -426 l34 -58
184 0 183 0 -17 30 c-26 42 -166 178 -254 244 -76 58 -274 161 -365 191 -115
38 -231 62 -220 46z"/>
<path d="M2563 2332 c-3 -6 3 -31 12 -55 68 -170 125 -436 125 -589 l0 -48
224 0 c124 0 227 3 229 8 5 8 -17 196 -31 267 -24 116 -106 317 -163 396 l-20
28 -186 3 c-142 2 -187 0 -190 -10z"/>
<path d="M601 2312 c-60 -85 -134 -268 -167 -417 -13 -61 -31 -240 -25 -248 4
-4 113 -6 242 -5 l234 3 12 125 c19 205 49 342 112 498 11 29 21 57 21 62 0 6
-80 10 -204 10 l-205 0 -20 -28z"/>
<path d="M1141 2298 c-35 -83 -72 -201 -90 -293 -6 -27 -15 -70 -20 -95 -5
-25 -13 -96 -17 -157 l-7 -113 367 0 366 0 0 350 0 350 -290 0 -291 0 -18 -42z"/>
<path d="M1820 1990 l0 -350 380 0 380 0 0 43 c0 43 -22 213 -39 302 -18 96
-55 219 -93 307 l-20 48 -304 0 -304 0 0 -350z"/>
<path d="M418 1549 c-30 -19 32 -312 96 -453 13 -28 25 -56 27 -61 2 -6 17
-34 33 -63 l29 -52 210 0 209 0 -5 23 c-3 12 -19 60 -36 108 -41 117 -75 278
-86 411 -4 43 -11 80 -15 83 -13 8 -450 11 -462 4z"/>
<path d="M1019 1544 c-17 -21 18 -292 51 -399 20 -64 54 -161 67 -192 l13 -33
295 0 295 0 0 315 c0 293 -1 315 -17 315 -280 7 -696 3 -704 -6z"/>
<path d="M1868 1553 l-48 -4 0 -315 0 -314 309 0 309 0 17 43 c50 122 97 315
115 471 11 92 11 101 -6 113 -14 10 -87 13 -333 11 -174 -1 -337 -3 -363 -5z"/>
<path d="M2711 1550 c-4 -3 -13 -52 -20 -110 -23 -192 -63 -353 -126 -502 -7
-17 6 -18 192 -18 l200 0 29 52 c16 29 31 57 33 63 2 5 14 33 27 61 33 73 63
171 83 269 16 78 24 185 15 186 -42 4 -428 3 -433 -1z"/>
<path d="M675 831 c-6 -11 89 -124 162 -192 163 -153 407 -283 613 -329 30 -7
70 -17 89 -21 19 -5 37 -6 39 -4 7 6 -18 35 -30 35 -5 0 -43 23 -84 51 -83 58
-194 165 -260 251 -47 62 -124 185 -124 198 0 4 -7 11 -16 14 -26 10 -382 7
-389 -3z"/>
<path d="M1200 827 c0 -19 83 -150 141 -223 72 -91 206 -212 287 -261 117 -70
107 -90 107 222 l0 270 -267 3 c-216 2 -268 0 -268 -11z"/>
<path d="M1827 833 c-4 -3 -7 -129 -7 -280 0 -228 2 -273 14 -273 25 0 158 81
233 142 94 76 170 161 247 278 99 148 119 135 -205 138 -151 1 -278 -1 -282
-5z"/>
<path d="M2513 828 c-4 -7 -19 -34 -33 -61 -75 -140 -273 -352 -395 -422 -65
-37 -67 -40 -41 -43 93 -11 394 116 549 231 134 99 306 275 292 298 -10 15
-362 12 -372 -3z"/>
</g>
</svg>
