<svg xmlns="http://www.w3.org/2000/svg" viewBox="0 0 458 426" fill="currentColor">
<g transform="translate(0,426) scale(0.1,-0.1)" fill="currentColor" stroke="none">
<path d="M1380 3606 c-56 -20 -115 -50 -134 -69 -19 -19 -51 -23 -61 -7 -3 6
-22 10 -42 10 -20 0 -52 5 -70 12 -42 15 -53 3 -48 -53 l4 -38 -69 2 c-38 1
-72 5 -76 10 -4 4 -24 7 -44 7 -46 0 -80 -30 -80 -70 0 -25 4 -30 25 -30 27 0
32 -9 13 -28 -10 -10 -10 -17 0 -32 10 -16 9 -22 -7 -37 -10 -10 -22 -28 -25
-40 -6 -18 -3 -23 12 -23 28 0 55 -34 47 -60 -4 -14 -1 -28 11 -41 13 -15 15
-22 6 -31 -19 -19 -14 -28 13 -28 24 0 33 -3 82 -28 13 -7 30 -12 38 -12 8 0
15 -8 15 -19 0 -25 17 -37 62 -45 36 -7 79 6 77 22 -4 27 3 42 21 42 30 0 95
-35 139 -76 38 -34 40 -34 83 -23 23 6 55 13 70 16 15 3 35 14 44 24 21 23 47
24 78 4 21 -14 25 -14 49 5 14 11 32 17 41 14 21 -8 21 -11 -14 -51 -20 -22
-28 -39 -22 -46 14 -20 7 -175 -9 -195 -8 -9 -21 -35 -28 -56 -7 -22 -26 -58
-40 -82 -15 -23 -33 -68 -41 -101 -19 -83 -49 -120 -100 -125 -23 -2 -44 0
-46 4 -3 4 -26 6 -52 5 -32 -1 -56 5 -77 18 -38 26 -96 46 -109 38 -5 -4 -24
-7 -40 -9 -17 -1 -59 -14 -94 -29 l-63 -26 -40 20 c-22 12 -45 21 -52 21 -6 0
-37 12 -67 26 -103 49 -124 56 -193 59 -53 3 -58 1 -63 -20 -3 -13 -3 -33 1
-44 4 -13 -2 -31 -17 -51 -17 -24 -23 -45 -23 -93 -1 -34 -9 -120 -18 -192
-19 -143 -31 -241 -47 -385 -10 -88 -25 -208 -35 -272 -2 -15 0 -30 6 -33 5
-4 64 -13 132 -21 67 -7 133 -16 147 -19 58 -12 363 -35 386 -29 13 3 30 2 37
-4 6 -6 50 -14 97 -18 59 -5 92 -12 109 -25 13 -11 29 -19 36 -19 15 0 55 42
55 58 0 7 9 12 20 12 11 0 30 11 42 25 12 14 29 25 39 25 26 0 42 27 35 60 -3
17 0 42 6 56 8 16 8 28 2 32 -16 12 -39 55 -68 126 -15 38 -38 88 -50 110 -12
23 -28 63 -35 90 -7 27 -19 58 -27 70 -7 11 -14 28 -14 37 0 9 -16 40 -35 69
-22 32 -35 64 -35 84 0 17 -7 42 -16 54 -15 22 -13 52 4 52 12 0 52 -92 52
-119 0 -42 49 -111 80 -111 9 0 21 15 30 38 7 20 25 55 39 76 45 68 37 5 -14
-116 -6 -15 -2 -18 27 -18 44 0 75 -23 99 -74 10 -22 30 -59 44 -81 64 -104
95 -165 95 -189 0 -37 26 -72 71 -98 36 -20 89 -84 89 -107 0 -6 9 -27 21 -48
16 -28 19 -46 15 -78 -4 -23 -2 -64 4 -93 12 -54 61 -132 84 -132 23 0 65 -40
101 -96 19 -30 35 -58 35 -63 0 -17 35 -75 88 -145 81 -109 96 -146 88 -219
-4 -46 -2 -70 9 -91 8 -15 15 -43 15 -61 0 -18 7 -49 15 -69 8 -20 14 -49 13
-65 -5 -61 47 -100 115 -87 17 4 45 8 60 9 15 1 31 7 35 12 20 28 77 55 135
65 63 10 94 21 167 60 19 11 50 19 68 20 24 0 43 11 79 45 26 26 55 45 68 45
12 0 52 14 88 30 37 17 73 30 82 30 8 0 38 15 65 33 43 27 49 36 45 58 -4 16
1 32 12 46 21 24 99 63 125 63 10 0 28 9 40 20 16 15 36 20 73 20 57 0 75 12
75 50 0 35 24 56 88 76 48 16 52 19 52 49 0 38 24 62 75 76 l37 11 -5 46 c-6
59 13 102 48 102 20 0 26 8 39 54 9 30 27 68 41 84 13 16 34 50 45 76 l20 47
-34 20 c-19 11 -51 40 -71 65 -29 35 -43 44 -64 42 -24 -2 -79 11 -142 34 -15
5 -40 24 -57 41 -28 29 -31 39 -35 113 -4 78 -10 104 -26 104 -7 0 -127 -146
-171 -210 -40 -58 -44 -60 -120 -60 -44 0 -82 -6 -101 -15 -27 -15 -32 -14
-69 7 l-39 23 6 58 c3 33 1 67 -5 80 -5 12 -13 30 -16 40 -15 47 -56 -12 -56
-81 0 -37 -15 -43 -25 -9 -4 12 -19 34 -32 49 -20 21 -24 33 -20 57 4 17 2 33
-3 36 -6 3 -10 14 -10 23 0 9 -27 39 -61 67 -68 56 -97 91 -123 150 -10 22
-24 53 -32 69 -18 37 -18 46 1 46 9 0 20 11 25 25 6 16 14 23 25 19 10 -4 15
0 15 15 0 18 6 21 39 21 22 0 43 -4 46 -10 4 -6 13 -5 26 3 18 10 23 9 40 -13
10 -14 27 -34 38 -45 10 -11 22 -35 26 -54 16 -76 65 -141 107 -141 33 0 88
-25 88 -41 0 -5 19 -19 43 -30 23 -11 57 -31 76 -45 40 -28 68 -30 119 -8 20
9 54 18 76 20 45 3 66 18 48 36 -9 9 -12 9 -12 0 0 -7 -9 -12 -20 -12 -11 0
-20 5 -20 10 0 6 9 10 19 10 11 0 23 5 26 10 3 5 24 10 45 10 46 0 70 -26 95
-100 l16 -49 65 -6 c97 -11 247 -12 266 -3 9 4 19 4 22 -1 4 -5 23 -12 45 -16
35 -6 49 0 152 61 142 83 141 82 133 123 -10 48 -45 61 -84 33 -38 -28 -60
-28 -60 0 0 30 -34 97 -67 133 -16 17 -48 55 -73 85 -25 30 -53 61 -62 68 -26
19 -22 41 17 102 51 79 46 106 -19 112 -44 3 -47 7 -70 98 -27 102 -29 120
-17 120 19 0 12 18 -9 25 -27 8 -36 49 -18 78 34 52 48 193 25 248 -13 32 -18
35 -45 31 -23 -3 -38 2 -59 22 -15 14 -35 26 -44 26 -8 0 -25 11 -37 25 -18
20 -31 25 -71 25 -28 0 -53 5 -56 10 -3 6 -16 10 -27 10 -12 0 -31 9 -42 19
-18 17 -28 19 -61 11 -22 -5 -41 -14 -43 -19 -2 -6 -19 -11 -37 -11 -34 0 -95
-40 -95 -62 0 -15 -31 -37 -52 -38 -11 0 -18 -10 -20 -27 -3 -25 -11 -30 -83
-52 -44 -13 -98 -24 -120 -25 -46 -1 -127 34 -148 64 -9 12 -30 23 -53 27 -59
9 -72 19 -79 63 -5 29 -13 44 -28 49 -41 16 -57 43 -48 81 17 77 -21 80 -104
10 -86 -72 -129 -65 -204 34 -30 40 -48 56 -65 56 -33 0 -50 24 -43 60 9 42
-23 72 -107 100 -61 21 -73 22 -105 10 -20 -7 -49 -22 -66 -34 -25 -17 -45
-21 -140 -22 -112 -1 -155 10 -207 54 -9 7 -25 11 -35 8 -14 -5 -21 1 -30 24
-10 26 -15 30 -36 25 -18 -5 -29 -1 -43 18 -17 21 -30 25 -104 30 -55 3 -97 1
-120 -7z"/>
<path d="M732 3349 c2 -7 10 -15 17 -17 8 -3 12 1 9 9 -2 7 -10 15 -17 17 -8
3 -12 -1 -9 -9z"/>
<path d="M867 2983 c-13 -13 -7 -32 8 -27 8 4 15 12 15 20 0 15 -12 19 -23 7z"/>
<path d="M1334 2825 c-4 -8 -14 -15 -24 -15 -10 0 -24 -7 -31 -16 -11 -14 -10
-19 10 -35 29 -23 43 -24 84 -2 32 17 38 19 57 22 6 0 10 8 10 16 0 9 7 18 15
21 34 13 11 24 -50 24 -49 0 -67 -4 -71 -15z"/>
<path d="M3070 1725 c0 -8 5 -15 10 -15 6 0 10 7 10 15 0 8 -4 15 -10 15 -5 0
-10 -7 -10 -15z"/>
</g>
</svg>
