<svg xmlns="http://www.w3.org/2000/svg" viewBox="0 0 598 606" fill="currentColor">
<g transform="translate(0,606) scale(0.1,-0.1)" fill="currentColor" stroke="none">
<path d="M4575 5770 c-38 -3 -92 -16 -119 -28 -55 -25 -85 -27 -134 -10 -29
11 -35 10 -46 -5 -12 -16 -14 -16 -36 3 -28 24 -36 25 -44 5 -4 -11 1 -15 19
-15 16 0 25 -6 25 -16 0 -11 -5 -14 -17 -9 -42 17 -53 17 -53 1 0 -9 8 -16 19
-16 10 0 21 -7 25 -15 6 -17 -19 -21 -30 -4 -12 21 -68 38 -82 26 -10 -8 -19
-7 -34 2 -17 10 -22 10 -29 0 -6 -10 -11 -10 -21 -1 -17 13 -123 1 -140 -16
-7 -7 -22 -12 -34 -12 -13 0 -26 -4 -29 -10 -3 -5 -27 -10 -53 -10 -49 0 -152
-40 -152 -60 0 -14 14 -13 56 5 20 8 40 13 44 10 11 -7 7 -76 -5 -96 -13 -20
-48 -39 -73 -39 -11 0 -25 -7 -32 -15 -7 -8 -32 -24 -55 -34 -50 -22 -58 -32
-50 -64 4 -16 21 -31 46 -42 21 -10 39 -22 39 -26 0 -10 71 1 87 13 15 12 24
-3 21 -36 -2 -19 -7 -25 -18 -20 -21 8 -22 8 -52 1 -16 -4 -40 -9 -54 -12 -23
-5 -30 -28 -8 -31 42 -7 55 -17 49 -43 -5 -22 -1 -30 19 -41 17 -9 29 -10 38
-3 7 6 42 11 77 11 88 2 146 -24 167 -75 9 -21 25 -50 35 -65 11 -14 19 -32
19 -40 0 -8 12 -43 26 -79 25 -62 28 -111 8 -162 -8 -22 13 -22 38 -1 14 14
20 14 33 4 8 -7 15 -17 15 -23 0 -6 10 -21 22 -34 27 -29 13 -52 -19 -32 -11
7 -28 9 -38 5 -27 -10 -5 -27 44 -33 47 -6 58 -17 41 -38 -6 -8 -9 -18 -6 -23
9 -16 -21 -97 -36 -97 -35 0 -65 -54 -39 -69 5 -3 11 -23 14 -43 8 -61 23
-108 33 -106 5 1 17 5 27 8 22 9 23 -12 2 -36 -14 -15 -14 -21 6 -60 36 -71
78 -119 103 -119 13 0 31 -9 41 -20 21 -23 57 -26 74 -6 6 8 14 38 18 67 3 30
12 64 19 76 8 12 14 41 14 64 0 32 6 47 26 65 14 13 29 24 35 24 5 0 12 7 16
16 4 11 13 14 30 9 35 -8 65 14 113 85 35 52 45 60 72 60 55 0 106 22 165 72
32 27 58 52 58 55 0 16 -60 21 -93 8 -43 -19 -42 -19 -42 4 0 11 -5 21 -12 23
-15 5 -3 37 17 44 23 9 31 -4 17 -26 -10 -16 -10 -20 1 -20 18 0 37 21 37 40
0 8 -13 21 -30 28 -38 17 -39 32 -1 32 45 0 61 -9 76 -46 8 -19 21 -34 29 -34
8 0 21 -3 30 -6 22 -8 21 21 -1 54 -10 15 -23 36 -29 47 -6 11 -23 21 -37 23
-21 3 -26 8 -24 25 1 16 -3 21 -14 19 -26 -4 -19 45 9 57 12 6 22 15 22 21 0
15 26 12 40 -5 16 -19 64 -19 79 -1 10 12 6 18 -23 31 -42 20 -44 28 -13 58
19 18 23 29 19 61 -4 36 -3 39 17 33 28 -7 37 10 16 33 -9 10 -14 23 -11 29 4
5 -2 15 -13 20 -11 6 -27 18 -36 28 -16 15 -15 18 7 34 12 10 40 19 61 19 30
0 37 4 37 20 0 13 -7 20 -18 20 -19 0 -42 18 -42 32 0 4 7 8 15 8 8 0 15 5 15
10 0 17 -29 23 -45 10 -25 -21 -29 -3 -11 39 10 22 15 48 12 59 -5 16 0 25 19
38 21 14 26 24 25 53 -3 63 -1 71 20 71 11 0 20 7 20 15 0 19 -15 19 -44 -1
-30 -19 -42 -3 -18 25 13 18 33 24 97 30 73 7 125 25 125 42 0 27 -161 26
-242 -2 -58 -20 -62 -21 -74 -4 -7 9 -30 18 -54 21 -90 8 -75 34 20 34 38 0
71 4 74 8 3 5 -36 14 -87 21 -51 7 -116 17 -146 22 -30 5 -57 8 -60 8 -3 -1
-37 -5 -76 -9z"/>
<path d="M3255 5640 c-40 -7 -44 -38 -9 -73 20 -20 24 -31 16 -39 -8 -8 -18
-3 -36 17 -14 15 -26 33 -26 40 0 7 -8 19 -17 27 -33 28 -143 10 -143 -23 0
-5 12 -9 27 -9 39 0 87 -42 102 -89 10 -34 16 -41 36 -41 15 0 25 -6 25 -14 0
-20 -35 -29 -59 -17 -11 6 -27 11 -36 11 -24 0 -66 -46 -59 -64 8 -20 38 -20
54 -1 20 24 32 -3 14 -30 -8 -12 -12 -30 -8 -39 8 -20 40 -21 48 -1 8 21 27
19 19 -2 -10 -29 -35 -53 -54 -53 -10 0 -29 14 -42 31 -33 43 -62 35 -45 -12
10 -30 9 -34 -15 -54 -15 -11 -27 -26 -27 -33 0 -15 38 -35 51 -26 6 3 21 1
33 -5 17 -10 28 -9 51 3 20 11 33 12 41 5 7 -6 22 -8 33 -4 13 4 23 0 29 -12
9 -15 13 -15 46 11 38 29 46 46 21 46 -9 0 -18 7 -21 15 -4 10 -20 15 -45 15
-40 0 -49 9 -26 28 7 6 28 7 55 2 46 -8 54 -3 56 39 1 19 7 27 24 29 17 3 21
8 17 23 -4 13 -2 19 9 19 19 0 21 16 4 23 -8 4 -4 8 10 12 12 4 22 14 22 21 0
15 -6 18 -50 28 -19 4 -26 12 -25 28 0 38 14 48 62 48 44 0 45 1 38 28 -5 22
-4 25 6 15 21 -21 42 -15 74 22 17 20 39 35 51 35 12 0 27 6 33 14 10 12 6 13
-26 6 -20 -5 -42 -6 -47 -2 -13 8 -249 10 -291 2z"/>
<path d="M2865 5615 c-22 -7 -61 -14 -87 -14 -49 -1 -55 -5 -38 -31 7 -12 12
-12 22 -2 32 32 118 -11 102 -52 -6 -15 0 -16 46 -14 63 4 75 -12 25 -31 -30
-10 -35 -16 -29 -34 3 -12 13 -28 22 -35 15 -11 15 -14 2 -22 -13 -8 -12 -11
5 -24 26 -20 44 -20 51 -1 3 8 21 24 40 36 19 11 34 26 34 32 0 7 17 26 37 44
l38 32 -32 31 c-27 25 -48 35 -85 39 -3 1 -19 12 -35 25 -38 32 -69 37 -118
21z"/>
<path d="M2550 5485 c-15 -18 2 -45 30 -45 26 0 35 -32 14 -47 -24 -17 -10
-28 31 -24 27 2 40 -4 60 -25 31 -33 43 -25 27 19 -7 19 -12 40 -12 48 0 21
-58 62 -77 55 -9 -4 -17 1 -20 14 -6 24 -35 26 -53 5z"/>
<path d="M3400 5470 c0 -5 7 -10 15 -10 8 0 15 5 15 10 0 6 -7 10 -15 10 -8 0
-15 -4 -15 -10z"/>
<path d="M2760 5411 c0 -16 7 -34 15 -41 9 -7 13 -21 10 -30 -7 -23 18 -32 50
-20 34 13 32 42 -6 85 -39 44 -69 47 -69 6z"/>
<path d="M2355 5395 l-30 -24 51 -1 c60 0 70 7 47 32 -21 24 -32 23 -68 -7z"/>
<path d="M2362 5325 c-26 -11 -33 -20 -30 -37 3 -24 35 -35 65 -23 13 4 14 8
5 17 -17 17 -15 38 3 38 8 0 15 5 15 10 0 14 -19 12 -58 -5z"/>
<path d="M2280 5310 c0 -5 5 -10 10 -10 6 0 10 5 10 10 0 6 -4 10 -10 10 -5 0
-10 -4 -10 -10z"/>
<path d="M2640 5310 c0 -5 5 -10 10 -10 6 0 10 5 10 10 0 6 -4 10 -10 10 -5 0
-10 -4 -10 -10z"/>
<path d="M2837 5284 c-12 -12 4 -24 34 -24 19 0 29 5 29 15 0 15 -50 22 -63 9z"/>
<path d="M2550 5275 c0 -18 19 -40 26 -32 4 4 0 15 -9 24 -9 10 -17 13 -17 8z"/>
<path d="M2215 5250 c-3 -5 -17 -10 -30 -10 -17 0 -33 -13 -55 -44 -16 -25
-39 -48 -50 -51 -11 -3 -20 -14 -20 -24 0 -14 8 -18 38 -18 32 0 42 5 60 33
23 36 42 44 42 19 0 -8 3 -15 6 -15 14 0 33 36 34 62 0 15 5 30 10 33 6 4 8
11 5 16 -8 12 -32 12 -40 -1z"/>
<path d="M2810 5205 c-11 -13 -10 -19 6 -38 32 -37 48 -46 70 -41 28 7 35 -4
44 -83 5 -35 11 -67 14 -70 3 -3 25 -6 48 -7 24 -1 48 -5 54 -8 5 -4 41 -3 79
2 38 5 74 5 80 0 18 -15 63 1 68 23 3 12 8 32 12 44 14 43 -77 65 -134 32 -39
-23 -133 -28 -140 -8 -2 6 -12 19 -22 27 -23 20 -24 32 -4 32 20 0 19 17 -1
38 -10 10 -31 16 -54 15 -33 -2 -39 2 -44 23 -4 13 -13 24 -20 24 -8 0 -21 2
-29 5 -7 3 -20 -1 -27 -10z"/>
<path d="M2426 5158 c-13 -18 -13 -25 -3 -37 30 -39 37 -59 22 -71 -18 -15
-65 9 -89 44 -9 15 -23 26 -30 26 -7 0 -19 7 -26 15 -7 8 -18 15 -25 15 -16 0
-30 -51 -17 -59 6 -4 6 -15 1 -29 -5 -13 -12 -21 -17 -18 -4 2 -14 0 -22 -5
-13 -8 -12 -12 4 -24 24 -18 43 -19 60 -2 15 14 106 11 106 -4 0 -10 -8 -14
-52 -23 -16 -4 -28 -11 -28 -17 0 -22 35 -20 84 5 28 14 67 26 87 26 39 0 53
11 62 50 9 36 -6 58 -27 41 -23 -19 -43 1 -51 50 -8 44 -17 49 -39 17z"/>
<path d="M2680 5166 c0 -4 7 -18 16 -32 19 -28 9 -48 -10 -21 -19 25 -29 21
-22 -8 4 -16 2 -25 -6 -25 -9 0 -9 -3 -1 -11 8 -8 17 -8 33 1 27 15 38 5 22
-20 -17 -28 -15 -53 4 -46 9 3 22 6 29 6 18 0 39 60 25 74 -5 5 -10 25 -10 43
0 28 -3 33 -24 33 -13 0 -31 3 -40 6 -9 3 -16 3 -16 0z"/>
<path d="M2580 5150 c0 -5 7 -10 16 -10 8 0 12 5 9 10 -3 6 -10 10 -16 10 -5
0 -9 -4 -9 -10z"/>
<path d="M2170 5085 c-7 -9 -10 -18 -7 -22 8 -7 37 15 37 28 0 14 -16 11 -30
-6z"/>
<path d="M2620 5091 c0 -6 5 -13 10 -16 6 -3 10 1 10 9 0 9 -4 16 -10 16 -5 0
-10 -4 -10 -9z"/>
<path d="M2800 5049 c0 -5 4 -9 9 -9 5 0 11 -13 14 -29 6 -26 37 -47 51 -33
11 10 6 61 -6 69 -18 11 -68 12 -68 2z"/>
<path d="M2577 5026 c-6 -15 1 -26 15 -26 4 0 8 9 8 20 0 23 -15 27 -23 6z"/>
<path d="M5040 5010 c0 -5 7 -10 15 -10 8 0 15 5 15 10 0 6 -7 10 -15 10 -8 0
-15 -4 -15 -10z"/>
<path d="M5000 4950 c0 -5 5 -10 10 -10 6 0 10 5 10 10 0 6 -4 10 -10 10 -5 0
-10 -4 -10 -10z"/>
<path d="M2049 4942 c-35 -3 -37 -5 -37 -40 0 -20 -7 -66 -17 -102 l-18 -65
35 -38 35 -37 32 16 c18 9 36 26 41 38 9 25 85 106 119 127 l23 15 -27 32
c-22 26 -34 32 -65 32 -21 0 -41 4 -44 9 -8 12 -34 17 -77 13z"/>
<path d="M2850 4889 c-12 -22 -10 -132 3 -145 3 -4 20 7 36 25 16 17 34 31 40
31 12 0 58 87 50 94 -2 2 -30 7 -61 10 -52 7 -58 5 -68 -15z"/>
<path d="M2745 4880 c-3 -5 -15 -10 -26 -10 -25 0 -36 -27 -20 -53 18 -27 -1
-47 -29 -29 -25 15 -30 15 -30 -2 0 -8 16 -24 35 -36 19 -12 43 -35 52 -51 21
-34 21 -34 54 -6 22 19 26 28 21 61 -3 27 -10 40 -23 43 -22 6 -24 16 -7 42
12 19 5 51 -11 51 -5 0 -13 -4 -16 -10z"/>
<path d="M2520 4862 c0 -23 19 -42 42 -42 21 0 24 30 6 48 -18 18 -48 15 -48
-6z"/>
<path d="M3048 4857 c-33 -28 -44 -50 -52 -107 -7 -52 0 -67 34 -71 36 -6 39
-37 3 -41 l-28 -3 25 -26 c19 -19 44 -29 102 -39 43 -7 90 -10 106 -7 16 3 34
1 40 -5 13 -13 32 -2 32 18 0 25 27 15 59 -22 23 -26 30 -41 25 -56 -5 -18 -3
-20 19 -14 22 5 30 0 56 -38 36 -52 38 -72 11 -106 -11 -14 -20 -37 -20 -51 0
-27 -19 -39 -66 -39 -11 0 -29 -9 -39 -20 -17 -19 -18 -22 -2 -37 13 -13 21
-14 39 -5 56 27 67 25 103 -14 19 -21 37 -46 41 -56 3 -10 15 -18 28 -18 12 0
26 -4 32 -9 16 -14 74 -31 74 -21 0 6 -13 22 -30 37 -38 34 -41 58 -5 41 14
-6 25 -14 25 -18 0 -10 47 -30 54 -23 3 4 6 20 6 36 0 21 -11 40 -37 65 -41
38 -66 79 -57 93 9 15 22 10 73 -26 26 -19 51 -35 54 -35 10 0 48 93 40 100
-4 4 -45 35 -91 70 -55 41 -82 68 -80 79 2 9 11 15 21 13 9 -2 17 2 17 8 0 5
-7 10 -15 10 -11 0 -13 8 -8 30 5 29 -8 42 -22 20 -11 -18 -25 0 -19 25 5 20
2 24 -23 27 -19 2 -32 12 -41 31 -9 19 -21 27 -39 27 -28 0 -73 41 -73 66 0 8
-11 20 -25 26 -19 8 -24 16 -19 30 10 32 -23 58 -73 58 -46 0 -49 -5 -32 -44
15 -31 34 -39 59 -24 29 18 37 0 9 -20 -29 -21 -69 -42 -78 -42 -4 0 -7 17 -8
38 -2 60 -14 101 -32 105 -29 6 -61 -15 -61 -41 0 -15 -7 -26 -20 -29 -22 -6
-26 -23 -9 -40 8 -8 8 -13 0 -17 -16 -10 -14 -35 4 -52 8 -9 15 -22 15 -30 0
-8 -7 -14 -15 -14 -8 0 -15 5 -15 11 0 6 -9 22 -20 36 -27 35 -25 83 5 127 14
20 25 41 25 46 0 19 -55 10 -82 -13z"/>
<path d="M2483 4798 c4 -24 7 -52 9 -63 6 -37 -25 -21 -41 23 -17 48 -22 51
-36 20 -15 -34 -45 -36 -45 -4 0 21 -5 26 -24 26 -14 0 -28 -4 -31 -10 -3 -5
-13 -10 -22 -10 -13 0 -13 3 -3 15 17 20 0 39 -27 31 -28 -9 -80 -67 -87 -98
-5 -24 -3 -28 21 -34 47 -10 54 -14 48 -24 -3 -5 -15 -10 -26 -10 -12 0 -19
-7 -19 -20 0 -22 4 -23 78 -20 51 2 88 -13 76 -31 -3 -5 -25 -9 -50 -9 -61 0
-88 -14 -74 -40 7 -12 21 -20 38 -20 31 0 43 -7 58 -35 8 -15 21 -20 45 -18
57 3 97 14 118 34 25 24 33 24 73 -1 39 -24 47 -24 73 -4 19 14 19 16 2 25
-14 9 -16 14 -6 25 7 8 20 12 30 9 44 -14 -6 40 -66 70 -14 7 -22 25 -27 59
-8 61 -25 104 -51 134 -30 33 -40 27 -34 -20z"/>
<path d="M4872 4823 c9 -10 14 -23 12 -29 -5 -11 43 -60 51 -53 4 5 -15 66
-28 87 -5 6 -18 12 -29 12 -19 0 -20 -2 -6 -17z"/>
<path d="M2836 4678 c-9 -17 -16 -53 -16 -80 0 -44 2 -49 31 -61 26 -10 32
-19 34 -47 2 -24 -3 -41 -16 -53 -10 -10 -19 -27 -19 -37 0 -22 -20 -26 -38
-8 -18 18 -15 46 8 65 26 23 25 29 -7 58 -36 31 -46 31 -63 0 -12 -22 -11 -27
2 -38 19 -15 30 -67 14 -68 -68 -7 -127 -6 -131 1 -4 6 -16 10 -29 10 -12 0
-31 6 -42 14 -16 12 -22 12 -46 -2 -25 -14 -27 -20 -21 -55 5 -35 4 -39 -13
-35 -10 2 -20 13 -22 25 -2 11 -12 29 -23 39 -16 14 -23 15 -45 6 -37 -17
-109 -15 -124 4 -11 13 -10 16 8 21 41 10 15 43 -33 43 -17 0 -35 4 -41 8 -5
5 -25 15 -44 23 -19 7 -44 21 -54 31 -25 23 -29 22 -51 -2 -10 -11 -24 -20
-30 -20 -7 0 -15 9 -18 20 -3 11 -10 20 -16 20 -6 0 -11 -9 -11 -20 0 -32 -29
-23 -47 15 -19 39 -28 44 -35 17 -6 -20 -106 -74 -121 -65 -5 3 -3 9 4 14 7 4
10 11 7 15 -4 3 -28 -8 -53 -25 -25 -17 -52 -31 -60 -31 -8 0 -50 18 -94 41
-63 32 -101 44 -178 55 -160 24 -167 25 -190 46 -15 14 -30 19 -46 14 -14 -3
-32 1 -45 10 -20 14 -27 12 -96 -20 -55 -26 -80 -45 -96 -72 -24 -38 -73 -74
-103 -74 -35 0 -29 -28 16 -72 58 -55 80 -68 117 -68 56 0 29 -31 -38 -43 -24
-5 -34 -3 -38 8 -4 8 -12 15 -19 15 -11 0 -75 -32 -94 -47 -3 -2 3 -9 11 -16
9 -6 18 -21 20 -32 3 -17 12 -21 56 -23 30 -2 60 2 67 8 20 17 35 3 35 -30 0
-23 -7 -32 -33 -45 -51 -24 -107 -74 -107 -96 0 -11 11 -24 25 -31 17 -8 24
-17 20 -28 -3 -10 2 -23 10 -30 13 -11 18 -10 29 5 16 22 29 6 28 -35 -1 -25
3 -28 31 -29 18 0 39 -1 47 -1 8 -1 27 2 42 6 l28 6 -16 -38 c-25 -62 -47 -81
-131 -116 -18 -7 -33 -16 -33 -19 0 -4 -13 -12 -30 -19 -31 -13 -40 -30 -17
-30 8 0 22 9 32 20 10 11 29 20 42 20 26 0 51 12 108 55 70 51 126 111 119
128 -3 10 10 31 36 59 23 23 46 53 51 65 11 29 26 29 34 2 5 -16 0 -28 -19
-46 -25 -23 -36 -63 -17 -63 21 0 80 46 83 65 4 25 38 22 84 -6 17 -10 47 -19
67 -19 20 0 39 -4 42 -10 3 -5 19 -7 35 -3 19 3 30 1 30 -5 0 -26 49 -60 84
-59 27 1 44 -7 66 -28 16 -16 30 -34 31 -39 0 -6 16 -31 34 -56 19 -25 43 -63
53 -85 11 -22 31 -51 46 -64 14 -14 26 -29 26 -35 0 -6 9 -17 20 -24 11 -7 20
-17 20 -22 0 -6 -9 -10 -20 -10 -30 0 -24 -12 23 -42 27 -17 46 -23 52 -17 6
6 1 15 -13 25 -22 15 -30 34 -14 34 14 0 82 -72 82 -87 0 -8 -12 -13 -31 -13
-26 0 -30 -3 -23 -17 8 -18 9 -34 4 -159 -2 -74 12 -134 40 -169 9 -11 23 -36
30 -55 15 -37 34 -55 84 -80 16 -8 43 -37 59 -65 16 -27 40 -62 53 -76 14 -14
22 -32 19 -40 -3 -9 6 -21 25 -32 16 -10 30 -24 30 -31 0 -12 32 -46 58 -60
23 -14 -42 95 -90 151 -27 30 -48 61 -48 69 0 24 39 15 57 -13 17 -27 61 -79
169 -196 34 -36 54 -67 54 -82 0 -25 24 -45 100 -82 77 -37 142 -55 179 -48
28 5 41 1 77 -24 25 -18 65 -35 96 -41 39 -7 59 -17 75 -37 38 -48 61 -68 90
-82 15 -7 41 -20 57 -29 26 -14 30 -13 41 2 21 28 50 19 68 -22 29 -67 23 -98
-33 -159 -54 -59 -58 -70 -34 -88 15 -10 15 -13 0 -27 -24 -25 -19 -63 12
-100 15 -18 34 -46 42 -63 37 -75 85 -136 119 -151 74 -33 83 -39 98 -67 17
-33 13 -196 -7 -282 -7 -27 -14 -81 -17 -120 -3 -46 -13 -87 -28 -119 -16 -31
-22 -58 -19 -73 4 -13 2 -36 -4 -51 -15 -38 -22 -102 -13 -102 5 0 11 9 14 20
3 11 10 20 17 20 8 0 9 -16 4 -57 -10 -84 -19 -103 -49 -103 -30 0 -33 -15 -5
-23 16 -4 20 -14 20 -44 0 -21 -7 -48 -15 -61 -14 -19 -14 -24 0 -52 9 -18 23
-30 35 -30 21 0 28 -26 8 -32 -6 -2 -8 -10 -4 -16 7 -12 38 -9 89 10 29 11 32
19 17 48 -8 15 -5 25 14 47 47 53 76 91 76 100 0 6 -9 18 -20 28 -27 24 -25
41 5 61 28 18 57 76 54 109 -3 42 0 47 27 42 23 -4 28 0 42 34 14 35 19 39 51
39 53 0 101 33 101 68 0 16 -9 37 -20 47 -27 24 -11 39 25 25 44 -17 73 -4
124 52 93 104 111 131 111 170 0 34 5 41 59 78 33 22 71 40 85 40 39 0 55 10
85 54 20 30 31 62 39 120 9 68 15 84 39 106 55 49 94 109 91 137 -2 14 -10 29
-18 33 -8 4 -39 22 -68 39 -40 23 -66 31 -102 31 -30 0 -62 7 -82 19 -46 27
-144 54 -168 46 -21 -7 -28 13 -11 31 6 5 5 23 -2 45 -14 45 -73 79 -155 90
-43 6 -61 14 -74 33 -10 13 -44 38 -76 54 -48 25 -65 29 -110 25 -42 -5 -61
-1 -96 18 -37 19 -47 21 -60 10 -9 -8 -16 -24 -16 -37 0 -13 -4 -24 -10 -24
-11 0 -13 11 -10 54 2 24 -1 28 -17 21 -10 -4 -34 -13 -53 -20 -19 -7 -38 -22
-44 -34 -11 -26 -42 -36 -61 -21 -9 8 -31 10 -63 5 -40 -5 -52 -3 -75 15 -24
19 -27 28 -27 86 l0 64 -70 0 c-66 0 -70 1 -70 23 0 12 9 47 20 77 11 30 20
56 20 57 0 2 -14 3 -31 3 -40 0 -69 -16 -69 -39 0 -25 -18 -38 -67 -46 -47 -7
-76 4 -110 44 -20 23 -22 37 -22 116 1 86 12 125 35 125 6 0 19 9 30 21 15 17
27 20 64 16 25 -2 55 -8 66 -12 17 -5 23 -2 27 16 6 21 9 22 83 16 42 -4 83
-12 89 -17 7 -6 22 -32 34 -59 22 -52 50 -84 52 -60 3 39 -3 78 -18 113 l-17
38 30 27 c52 45 106 86 125 95 23 11 23 22 5 67 -14 35 -12 59 5 59 5 0 9 -7
9 -15 0 -8 5 -15 11 -15 7 0 9 10 5 25 -4 15 -2 25 4 25 6 0 21 12 34 26 12
15 38 32 57 38 27 9 35 17 37 39 2 16 11 31 20 34 9 4 35 18 57 32 61 40 94
55 102 47 5 -5 -2 -15 -14 -23 -24 -16 -30 -38 -14 -48 5 -3 30 8 54 25 25 16
50 30 56 30 6 0 11 5 11 10 0 6 -14 10 -31 10 -24 0 -40 10 -70 43 -37 40 -38
43 -19 51 29 13 24 26 -10 26 -31 0 -67 -18 -107 -54 -38 -33 -26 -1 16 43 21
23 55 48 75 56 39 17 103 20 125 6 18 -11 64 4 87 30 9 10 29 19 44 19 32 0
50 17 50 46 0 37 -77 73 -95 44 -7 -11 -45 -14 -45 -4 0 12 35 33 53 34 23 0
18 20 -9 34 -56 31 -84 58 -84 82 0 25 -12 51 -42 93 -10 13 -18 32 -18 43 0
28 -34 19 -38 -10 -2 -12 -20 -33 -40 -47 -42 -29 -52 -31 -52 -10 0 8 -9 15
-20 15 -23 0 -24 4 -9 31 9 17 7 21 -11 26 -20 5 -20 6 -3 25 17 19 17 21 -7
39 -14 11 -38 32 -55 47 -26 24 -39 28 -93 29 -47 1 -65 -3 -69 -14 -3 -8 -1
-19 5 -25 6 -6 8 -17 5 -24 -3 -8 0 -28 6 -46 11 -30 10 -35 -15 -57 -25 -21
-26 -24 -10 -33 21 -12 46 -67 46 -102 0 -16 -12 -35 -36 -54 l-35 -29 11 -62
c12 -68 4 -91 -31 -91 -25 0 -71 75 -75 122 -3 51 -10 58 -49 58 -19 0 -37 5
-40 10 -3 6 -14 10 -24 10 -10 0 -24 7 -31 15 -20 24 -82 50 -120 50 -31 0
-35 3 -43 38 -6 26 -14 37 -27 37 -25 0 -33 29 -24 87 5 39 16 57 55 97 51 51
61 76 32 76 -21 0 -50 17 -42 24 3 3 21 1 40 -4 39 -11 92 8 121 43 20 25 15
37 -15 37 -28 1 -61 25 -52 39 4 8 16 6 36 -6 34 -20 62 -10 67 26 3 18 10 21
51 21 37 0 52 5 69 23 26 28 27 40 6 73 -13 19 -14 28 -5 37 29 29 -1 84 -50
89 -20 3 -24 -1 -25 -23 0 -32 -31 -99 -46 -99 -5 0 -8 -6 -5 -14 3 -8 0 -20
-8 -26 -11 -9 -17 -6 -30 13 -9 14 -15 36 -14 49 5 61 -12 79 -33 33 -13 -30
-28 -33 -28 -6 0 11 -12 33 -26 50 -15 19 -23 38 -20 48 8 26 -53 143 -74 143
-5 0 -16 -14 -24 -32z"/>
<path d="M4021 4571 c-12 -21 13 -51 42 -51 25 0 20 32 -8 53 -23 17 -25 17
-34 -2z"/>
<path d="M3300 4490 c0 -5 5 -10 10 -10 6 0 10 5 10 10 0 6 -4 10 -10 10 -5 0
-10 -4 -10 -10z"/>
<path d="M2480 4465 c-7 -9 -10 -18 -7 -21 9 -9 60 10 65 24 6 18 -43 15 -58
-3z"/>
<path d="M3373 4421 c-9 -14 -9 -21 0 -30 27 -27 61 4 37 34 -16 20 -23 19
-37 -4z"/>
<path d="M5100 4305 c-14 -8 -36 -14 -50 -15 -14 0 -36 -7 -48 -16 -25 -18
-42 -11 -42 17 0 21 -16 26 -22 7 -3 -7 -13 -13 -23 -13 -10 0 -20 -6 -22 -12
-3 -8 5 -13 22 -13 21 0 25 -4 20 -19 -3 -11 -1 -22 5 -26 7 -4 9 -17 6 -29
-5 -19 1 -23 49 -34 55 -13 55 -13 119 23 35 20 67 42 70 51 6 15 -38 94 -52
94 -4 -1 -18 -7 -32 -15z"/>
<path d="M3117 4238 c-4 -18 -9 -42 -12 -53 -5 -16 0 -24 19 -35 23 -12 28
-11 45 4 16 15 26 16 50 8 16 -6 32 -8 34 -5 9 9 -67 83 -86 83 -10 0 -20 7
-23 15 -10 24 -21 17 -27 -17z"/>
<path d="M3185 4090 c-3 -5 1 -10 9 -10 8 0 18 5 21 10 3 6 -1 10 -9 10 -8 0
-18 -4 -21 -10z"/>
<path d="M1158 3829 c-10 -5 -18 -14 -18 -19 0 -14 34 -12 48 2 26 26 5 38
-30 17z"/>
<path d="M1760 3730 c0 -11 5 -20 10 -20 6 0 10 9 10 20 0 11 -4 20 -10 20 -5
0 -10 -9 -10 -20z"/>
<path d="M1760 3658 c1 -15 24 -48 34 -48 11 0 7 35 -6 48 -16 16 -28 15 -28
0z"/>
<path d="M3953 3547 c-12 -16 -63 -113 -63 -119 0 -11 125 -16 137 -6 19 16
16 48 -4 48 -10 1 -28 9 -41 20 -19 16 -21 23 -13 39 12 22 -2 38 -16 18z"/>
<path d="M4040 3390 c0 -5 5 -10 10 -10 6 0 10 5 10 10 0 6 -4 10 -10 10 -5 0
-10 -4 -10 -10z"/>
<path d="M3830 3350 c0 -5 7 -10 15 -10 8 0 15 5 15 10 0 6 -7 10 -15 10 -8 0
-15 -4 -15 -10z"/>
<path d="M3220 2611 c0 -4 27 -16 59 -25 32 -9 64 -23 71 -31 14 -17 90 -21
90 -5 0 6 -7 10 -16 10 -9 0 -33 8 -53 19 -69 35 -151 53 -151 32z"/>
<path d="M1100 2530 c0 -5 5 -10 10 -10 6 0 10 5 10 10 0 6 -4 10 -10 10 -5 0
-10 -4 -10 -10z"/>
<path d="M3483 2520 c3 -13 0 -20 -9 -20 -8 0 -14 -4 -14 -9 0 -10 85 -9 96 2
4 4 16 7 26 7 32 0 19 19 -19 29 -61 17 -86 14 -80 -9z"/>
<path d="M3350 2490 c0 -5 7 -10 15 -10 8 0 15 5 15 10 0 6 -7 10 -15 10 -8 0
-15 -4 -15 -10z"/>
<path d="M3861 466 c-9 -11 -7 -15 11 -19 22 -6 48 7 48 24 0 14 -46 10 -59
-5z"/>
<path d="M3575 375 c0 -29 6 -50 18 -62 17 -17 19 -17 31 0 10 13 21 15 45 11
42 -9 40 9 -5 35 -20 12 -38 30 -41 41 -3 12 -14 20 -27 20 -19 0 -22 -5 -21
-45z"/>
<path d="M4515 354 c9 -9 18 -14 21 -11 9 9 -6 27 -22 27 -13 0 -13 -2 1 -16z"/>
</g>
</svg>
